<?xml version="1.0" encoding="iso-8859-1"?>
<!-- Generator: Adobe Illustrator 19.0.0, SVG Export Plug-In . SVG Version: 6.00 Build 0)  -->
<svg version="1.1" id="Capa_1" xmlns="http://www.w3.org/2000/svg" xmlns:xlink="http://www.w3.org/1999/xlink" x="0px" y="0px"
	 viewBox="0 0 496 496" style="enable-background:new 0 0 496 496;" xml:space="preserve">
<g>
	<path style="fill:#FFA64D;" d="M248,64v376h192V176L248,64z M408,344H280V232h128V344z"/>
	<rect x="40" y="344" style="fill:#FFA64D;" width="72" height="48"/>
	<rect x="208" y="296" style="fill:#FFA64D;" width="40" height="48"/>
</g>
<g>
	<path style="fill:#333333;" d="M472,432h-24V188.464c4.584,2.272,9.624,3.536,14.76,3.536c18.328,0,33.24-14.912,33.24-33.536
		c0-11.744-6.296-22.736-16.432-28.672L258.168,0h-20.392L152,51.472V56h-2.072L72,99.288V104h-2.296L0,147.56V200h18.064
		L32,192.312V432h-8c-13.232,0-24,10.768-24,24v16c0,13.232,10.768,24,24,24h448c13.232,0,24-10.768,24-24v-16
		C496,442.768,485.232,432,472,432z M256,432V77.856l176,101.536V432H256z M48,192h192v96H120v16h16v32H88v-32h16v-16H48V192z
		 M240,77.552V176H61.56L240,77.552z M184,384v-32h56v32H184z M120,384v-32h48v32H120z M200,304v32h-48v-32H200z M240,336h-24v-32
		h24V336z M48,304h24v32H48V304z M48,352h56v32H48V352z M136,400v32H88v-32H136z M152,400h48v32h-48V400z M216,400h24v32h-24V400z
		 M471.48,143.584c5.256,3.088,8.52,8.784,8.52,15.176c0,9.504-7.736,17.24-17.24,17.24c-3.016,0-6-0.8-8.608-2.304L256,59.376
		V17.272L471.48,143.584z M240,17.328v41.944L168,99V60.528L240,17.328z M152,73.152v34.672l-64,35.312v-34.424L152,73.152z
		 M16,182.856v-26.424l56-35v30.528L16,182.856z M48,400h24v32H48V400z M480,472c0,4.416-3.584,8-8,8H24c-4.416,0-8-3.584-8-8v-16
		c0-4.416,3.584-8,8-8h448c4.416,0,8,3.584,8,8V472z"/>
	<path style="fill:#333333;" d="M272,224v128h144V224H272z M400,280h-48v-40h48V280z M336,240v40h-48v-40H336z M288,296h48v40h-48
		V296z M352,336v-40h48v40H352z"/>
</g>
<g>
</g>
<g>
</g>
<g>
</g>
<g>
</g>
<g>
</g>
<g>
</g>
<g>
</g>
<g>
</g>
<g>
</g>
<g>
</g>
<g>
</g>
<g>
</g>
<g>
</g>
<g>
</g>
<g>
</g>
</svg>
