<?xml version="1.0" encoding="iso-8859-1"?>
<!-- Generator: Adobe Illustrator 19.0.0, SVG Export Plug-In . SVG Version: 6.00 Build 0)  -->
<svg version="1.1" id="Capa_1" xmlns="http://www.w3.org/2000/svg" xmlns:xlink="http://www.w3.org/1999/xlink" x="0px" y="0px"
	 viewBox="0 0 496 496" style="enable-background:new 0 0 496 496;" xml:space="preserve">
<g>
	<rect x="96" y="32" style="fill:#333333;" width="16" height="16"/>
	<rect x="128" y="32" style="fill:#333333;" width="16" height="16"/>
	<rect x="64" y="32" style="fill:#333333;" width="16" height="16"/>
	<path style="fill:#333333;" d="M464,101.624V0H32v101.624C12.696,110.824,0,130.32,0,152v240c0,30.872,25.12,56,56,56h88v32h-32v16
		h272v-16h-32v-32h88c30.88,0,56-25.128,56-56V152C496,130.32,483.304,110.824,464,101.624z M48,80h368V64H48V16h400v48h-16v16h16
		v272H48V80z M336,480H160v-32h176V480z M440,432H56c-19.312,0-35.472-13.768-39.192-32h462.384
		C475.472,418.232,459.312,432,440,432z M480,384H16V152c0-12.752,6.128-24.496,16-31.928V368h432V120.072
		c9.872,7.424,16,19.168,16,31.928V384z"/>
	<rect x="336" y="232" style="fill:#333333;" width="16" height="64"/>
	<rect x="264" y="304" style="fill:#333333;" width="64" height="16"/>
	<rect x="168" y="304" style="fill:#333333;" width="64" height="16"/>
	<rect x="144" y="232" style="fill:#333333;" width="16" height="64"/>
	<rect x="144" y="136" style="fill:#333333;" width="16" height="64"/>
	<rect x="168" y="112" style="fill:#333333;" width="64" height="16"/>
	<rect x="264" y="112" style="fill:#333333;" width="64" height="16"/>
	<rect x="336" y="136" style="fill:#333333;" width="16" height="64"/>
</g>
<g>
	<path style="fill:#FFA64D;" d="M368,336h-48v-48h48V336z M336,320h16v-16h-16V320z"/>
	<path style="fill:#FFA64D;" d="M368,144h-48V96h48V144z M336,128h16v-16h-16V128z"/>
	<path style="fill:#FFA64D;" d="M272,336h-48v-48h48V336z M240,320h16v-16h-16V320z"/>
	<path style="fill:#FFA64D;" d="M272,144h-48V96h48V144z M240,128h16v-16h-16V128z"/>
	<path style="fill:#FFA64D;" d="M368,240h-48v-48h48V240z M336,224h16v-16h-16V224z"/>
	<path style="fill:#FFA64D;" d="M176,336h-48v-48h48V336z M144,320h16v-16h-16V320z"/>
	<path style="fill:#FFA64D;" d="M176,144h-48V96h48V144z M144,128h16v-16h-16V128z"/>
	<path style="fill:#FFA64D;" d="M176,240h-48v-48h48V240z M144,224h16v-16h-16V224z"/>
	<polygon style="fill:#FFA64D;" points="192,152 192,272 312,272 	"/>
</g>
<g>
</g>
<g>
</g>
<g>
</g>
<g>
</g>
<g>
</g>
<g>
</g>
<g>
</g>
<g>
</g>
<g>
</g>
<g>
</g>
<g>
</g>
<g>
</g>
<g>
</g>
<g>
</g>
<g>
</g>
</svg>
