<?xml version="1.0" encoding="iso-8859-1"?>
<!-- Generator: Adobe Illustrator 19.0.0, SVG Export Plug-In . SVG Version: 6.00 Build 0)  -->
<svg version="1.1" id="Capa_1" xmlns="http://www.w3.org/2000/svg" xmlns:xlink="http://www.w3.org/1999/xlink" x="0px" y="0px"
	 viewBox="0 0 496 496" style="enable-background:new 0 0 496 496;" xml:space="preserve">
<g>
	<path style="fill:#0fbcba;" d="M360,440h-56c-13.256,0-24,10.744-24,24l0,0c0,13.256,10.744,24,24,24h16H184h8
		c13.256,0,24-10.744,24-24l0,0c0-13.256-10.744-24-24-24h-56v-56h224V440z"/>
	<path style="fill:#0fbcba;" d="M384,136L384,136L384,136L384,136c0-61.856-50.144-112-112-112l0,0c0-8.84-7.16-16-16-16h-16
		c-8.84,0-16,7.16-16,16l0,0c-61.856,0-112,50.144-112,112l0,0h0.008H112c-4.416,0-8,3.584-8,8v16c0,4.416,3.584,8,8,8h272
		c4.416,0,8-3.584,8-8v-16C392,139.584,388.416,136,384,136z"/>
</g>
<g>
	<path style="fill:#333333;" d="M308,224c11.024,0,20-8.968,20-20s-8.976-20-20-20s-20,8.968-20,20S296.976,224,308,224z M308,200
		c2.208,0,4,1.8,4,4s-1.792,4-4,4s-4-1.8-4-4S305.792,200,308,200z"/>
	<path style="fill:#333333;" d="M208,204c0-11.032-8.976-20-20-20s-20,8.968-20,20s8.976,20,20,20S208,215.032,208,204z M188,208
		c-2.208,0-4-1.8-4-4s1.792-4,4-4s4,1.8,4,4S190.208,208,188,208z"/>
	<path style="fill:#333333;" d="M383.952,345.72L304,336.84v-7.992c24.528-14.24,43.176-37.456,51.368-65.184
		C375.832,261.912,392,244.904,392,224v-50.224c4.76-2.776,8-7.88,8-13.776v-16c0-6.016-3.376-11.208-8.304-13.936
		C388.68,68.872,339.728,19.696,278.632,16.336C275.416,6.872,266.536,0,256,0h-16c-10.536,0-19.416,6.872-22.632,16.336
		c-61.104,3.36-110.056,52.536-113.072,113.728C99.376,132.792,96,137.984,96,144v16c0,5.896,3.24,11,8,13.776V224
		c0,20.904,16.168,37.912,36.632,39.656c8.192,27.728,26.84,50.944,51.368,65.184v7.992l-79.952,8.88
		C75.536,349.784,48,380.536,48,417.28V472c0,13.232,10.768,24,24,24h112h8h112h120c13.232,0,24-10.768,24-24v-54.72
		C448,380.536,420.464,349.784,383.952,345.72z M208,336.488c12.44,4.784,25.896,7.512,40,7.512s27.56-2.728,40-7.512v6.336
		c-1.368,4.16-9.768,25.176-40,25.176c-30.224,0-38.608-20.92-40-25.176V336.488z M376,176v16.208
		c-4.672-3.536-10.056-6.184-16-7.392V176H376z M358.896,246.872c0.648-4.88,1.104-9.816,1.104-14.872v-30.528
		c9.288,3.312,16,12.112,16,22.528C376,234.824,368.76,243.888,358.896,246.872z M375.592,128H360v16h24v16H112v-16h232v-16h-37.12
		l24.208-77.48C356.12,67.88,373.136,95.92,375.592,128z M136,176v8.808c-5.944,1.216-11.328,3.856-16,7.392V176H136z M240,112h16
		c13.232,0,24-10.768,24-24V32.408c13.136,1.008,25.56,4.472,36.888,9.928L290.12,128h-84.24l-26.768-85.672
		c11.328-5.448,23.752-8.912,36.888-9.92V88C216,101.232,226.768,112,240,112z M232,24c0-4.416,3.592-8,8-8h16c4.408,0,8,3.584,8,8
		v64c0,4.416-3.592,8-8,8h-16c-4.408,0-8-3.584-8-8V24z M164.912,50.52L189.12,128h-68.712
		C122.864,95.92,139.88,67.88,164.912,50.52z M120,224c0-10.416,6.712-19.216,16-22.528V232c0,5.056,0.456,9.992,1.104,14.872
		C127.248,243.888,120,234.824,120,224z M152,232v-56h192v56c0,52.936-43.064,96-96,96S152,284.936,152,232z M184,480h-48v-32h56
		c8.824,0,16,7.176,16,16s-7.176,16-16,16H184z M288,464c0-8.824,7.176-16,16-16h56v32h-56C295.176,480,288,472.824,288,464z
		 M432,472c0,4.416-3.592,8-8,8h-48v-32h24v-48h-16v32h-80c-17.648,0-32,14.352-32,32c0,5.856,1.696,11.272,4.448,16h-56.904
		c2.76-4.728,4.456-10.144,4.456-16c0-17.648-14.352-32-32-32h-80v-32H96v48h24v32H72c-4.408,0-8-3.584-8-8v-54.72
		c0-28.576,21.416-52.496,49.816-55.656l52.104-5.792L161.224,384h16.216l5-30l12.208-1.36C200.848,366.112,216.992,384,248,384
		s47.152-17.888,53.352-31.36L313.56,354l5,30h16.216l-4.696-28.168l52.104,5.792c28.4,3.16,49.816,27.08,49.816,55.656V472z"/>
	<path style="fill:#333333;" d="M296,264h-16c0,17.648-14.352,32-32,32s-32-14.352-32-32h-16c0,26.472,21.528,48,48,48
		S296,290.472,296,264z"/>
</g>
<g>
</g>
<g>
</g>
<g>
</g>
<g>
</g>
<g>
</g>
<g>
</g>
<g>
</g>
<g>
</g>
<g>
</g>
<g>
</g>
<g>
</g>
<g>
</g>
<g>
</g>
<g>
</g>
<g>
</g>
</svg>
