<?xml version="1.0" encoding="iso-8859-1"?>
<!-- Generator: Adobe Illustrator 19.0.0, SVG Export Plug-In . SVG Version: 6.00 Build 0)  -->
<svg version="1.1" id="Capa_1" xmlns="http://www.w3.org/2000/svg" xmlns:xlink="http://www.w3.org/1999/xlink" x="0px" y="0px"
	 viewBox="0 0 496 496" style="enable-background:new 0 0 496 496;" xml:space="preserve">
<g>
	<path style="fill:#0fbcba;" d="M408,128H232c-22.056,0-40-17.944-40-40V40c0-22.056,17.944-40,40-40h176c22.056,0,40,17.944,40,40
		v48C448,110.056,430.056,128,408,128z"/>
	<path style="fill:#0fbcba;" d="M128,448c-22.056,0-40-17.944-40-40v-1.432c0-5.44,1.088-10.744,3.224-15.752l18.272-42.616
		c3.168-7.408,10.432-12.2,18.504-12.2s15.336,4.792,18.504,12.208l18.256,42.6c2.152,5.016,3.232,10.32,3.232,15.76V408
		C168,430.056,150.056,448,128,448z"/>
</g>
<g>
	<path style="fill:#333333;" d="M472,56h-24v16h24c4.408,0,8,3.592,8,8v82.448c0,3.928-2.816,7.248-6.688,7.888L308.056,197.88
		C296.432,199.816,288,209.776,288,221.552V256c-13.232,0-24,10.768-24,24v96c0,13.232,10.768,24,24,24h16c13.232,0,24-10.768,24-24
		v-96c0-13.232-10.768-24-24-24v-34.448c0-3.928,2.816-7.248,6.688-7.888l165.256-27.544C487.568,184.184,496,174.224,496,162.448
		V80C496,66.768,485.232,56,472,56z M304,384h-16c-4.408,0-8-3.584-8-8v-72h32v72C312,380.416,308.408,384,304,384z M312,280v8h-32
		v-8c0-4.416,3.592-8,8-8h16C308.408,272,312,275.584,312,280z"/>
	<path style="fill:#333333;" d="M128,112C57.424,112,0,169.424,0,240v32v8v8c0,8.824,7.176,16,16,16h0.032v0.696l13.456,154.776
		C31.296,480.296,48.432,496,69.336,496h117.32c20.912,0,38.04-15.704,39.848-36.528L240,304c8.824,0,16-7.176,16-16v-8v-8v-32
		C256,169.424,198.576,112,128,112z M240,288h-32v16h15.968l-13.4,154.08c-1.08,12.496-11.36,21.92-23.904,21.92H69.336
		c-12.544,0-22.832-9.424-23.912-21.92L32,304h160v-16H16v-8v-8h224v8V288z M240,256H16v-16c0-61.76,50.24-112,112-112
		s112,50.24,112,112V256z"/>
	<rect x="224" y="80" style="fill:#333333;" width="16" height="16"/>
	<rect x="256" y="80" style="fill:#333333;" width="160" height="16"/>
</g>
<g>
</g>
<g>
</g>
<g>
</g>
<g>
</g>
<g>
</g>
<g>
</g>
<g>
</g>
<g>
</g>
<g>
</g>
<g>
</g>
<g>
</g>
<g>
</g>
<g>
</g>
<g>
</g>
<g>
</g>
</svg>
