<svg enable-background="new 0 0 496 496" viewBox="0 0 496 496" xmlns="http://www.w3.org/2000/svg"><path d="m224 248h80v96h-80z" fill="#ccc"/><path d="m328 160h-128v-64h128z" fill="#ccc"/><path d="m48 0-16 24v152h32v-152z" fill="#ccc"/><g fill="#333"><path d="m448 0h-288c-26.472 0-48 21.528-48 48v320h-112v80c0 26.472 21.528 48 48 48h320c26.472 0 48-21.528 48-48v-288h80v-112c0-26.472-21.528-48-48-48zm-400 480c-17.648 0-32-14.352-32-32v-64h304v64c0 12.28 4.64 23.504 12.256 32zm352-432v400c0 17.648-14.352 32-32 32s-32-14.352-32-32v-80h-208v-320c0-17.648 14.352-32 32-32h252.32c-7.632 8.504-12.32 19.696-12.32 32zm80 96h-64v-96c0-17.648 14.352-32 32-32s32 14.352 32 32z"/><path d="m360 64h-32v-32h-128v32h-32v272h-16v16h224v-16h-16zm-176 16h96v-16h-64v-16h96v16h-16v16h48v256h-32v-80h16v-16h-128v16h16v80h-32zm72 176v80h-24v-80zm16 0h24v80h-24z"/><path d="m200 176h128v16h-128z"/><path d="m200 208h128v16h-128z"/><path d="m16 320c0 17.648 14.352 32 32 32s32-14.352 32-32v-128h16v-16h-96v16h16zm32 16c-8.824 0-16-7.176-16-16v-96h32v96c0 8.824-7.176 16-16 16zm16-128h-32v-16h32z"/></g></svg>