<svg enable-background="new 0 0 496.944 496.944" viewBox="0 0 496.944 496.944" xmlns="http://www.w3.org/2000/svg"><path d="m448.472 100v-99.056h-112v43.056l-88-44-248 124v73.888l16-8v251.056h103.096v-16h-87.096v-243.056l216-108 180.392 90.192 7.16-14.312-187.552-93.768-232 116v-38.112l232-116 232 116v38.112l-28.424-14.208-7.16 14.312 19.584 9.784v243.056h-87.096v16h103.096v-251.056l16 8v-73.888zm-16-8-80-40v-3.056h80zm0-59.056h-80v-16h80z" fill="#333"/><path d="m432.472 352.944v-80h-29.112c-3.728-14.448-9.472-28.248-17.128-41.192l20.624-20.624-56.568-56.568-20.624 20.624c-12.944-7.656-26.752-13.4-41.192-17.128v-29.112h-80v29.112c-14.448 3.728-28.248 9.472-41.192 17.128l-20.624-20.624-56.568 56.568 20.624 20.624c-7.656 12.944-13.4 26.752-17.128 41.192h-29.112v80h29.112c3.728 14.448 9.472 28.248 17.128 41.192l-20.624 20.624 56.568 56.568 20.624-20.624c12.944 7.656 26.752 13.4 41.192 17.128v29.112h80v-29.112c14.448-3.728 28.248-9.472 41.192-17.128l20.624 20.624 56.568-56.568-20.624-20.624c7.656-12.944 13.4-26.752 17.128-41.192zm-184 40c-44.184 0-80-35.816-80-80s35.816-80 80-80 80 35.816 80 80-35.816 80-80 80z" fill="#ffa64d"/><g fill="#333"><path d="m248.472 400.944c-48.52 0-88-39.48-88-88s39.48-88 88-88 88 39.48 88 88-39.48 88-88 88zm0-160c-39.696 0-72 32.296-72 72s32.304 72 72 72 72-32.296 72-72-32.304-72-72-72z"/><path d="m140.496 283.072-15.424-4.248c15.256-55.28 66-93.88 123.4-93.88v16c-50.224 0-94.632 33.776-107.976 82.128z"/><path d="m136.472 312.944h-16c0-5.712.376-11.456 1.128-17.064l15.856 2.128c-.648 4.904-.984 9.928-.984 14.936z"/></g></svg>