<?xml version="1.0" encoding="iso-8859-1"?>
<!-- Generator: Adobe Illustrator 19.0.0, SVG Export Plug-In . SVG Version: 6.00 Build 0)  -->
<svg version="1.1" id="Capa_1" xmlns="http://www.w3.org/2000/svg" xmlns:xlink="http://www.w3.org/1999/xlink" x="0px" y="0px"
	 viewBox="0 0 497.28 497.28" style="enable-background:new 0 0 497.28 497.28;" xml:space="preserve">
<g>
	<polygon style="fill:#FFA64D;" points="104.64,336.64 88.64,320.64 0.64,320.64 0.64,400.64 88.64,400.64 104.64,384.64 
		240.64,384.64 240.64,336.64 	"/>
	<polygon style="fill:#FFA64D;" points="488.64,216.64 8.64,216.64 24.64,8.64 472.64,8.64 	"/>
</g>
<path style="fill:#333333;" d="M480.64,318.448V224.64h16.64l-17.232-224H17.232L0,224.64h16.64v96h16v-96h432v80.656
	c-9.424-5.472-20.336-8.656-32-8.656h-136c-10.416,0-19.216,6.712-22.528,16H256.64c-13.232,0-24,10.768-24,24v48
	c0,13.232,10.768,24,24,24h17.472c3.312,9.288,12.112,16,22.528,16h136c11.664,0,22.576-3.184,32-8.656v64.656h-432v-80h-16v96h464
	v-93.808c9.928-11.28,16-26.024,16-42.192S490.568,329.728,480.64,318.448z M480,208.64h-39.952l-1.28-16.616l-15.952,1.224
	L424,208.64h-39.952l-14.768-192h39.952l12.352,160.616l15.952-1.224L425.28,16.64h39.952L480,208.64z M144.048,16.64h40.28
	l-7.384,192H129.28L144.048,16.64z M113.232,208.64H73.28l14.768-192H128L113.232,208.64z M200.336,16.64h40.304v192h-47.688
	L200.336,16.64z M256.64,16.64h40.304l7.384,192H256.64V16.64z M312.952,16.64h40.28l14.768,192h-47.664L312.952,16.64z
	 M32.048,16.64H72l-14.768,192H17.28L32.048,16.64z M248.64,384.64v-48c0-4.416,3.584-8,8-8h16v64h-16
	C252.224,392.64,248.64,389.056,248.64,384.64z M432.64,408.64h-136c-4.416,0-8-3.584-8-8v-8h128c17.648,0,32-14.352,32-32
	s-14.352-32-32-32h-96v16h96c8.824,0,16,7.176,16,16s-7.176,16-16,16h-128v-32h16v-16h-16v-8c0-4.416,3.584-8,8-8h136
	c26.472,0,48,21.528,48,48S459.112,408.64,432.64,408.64z"/>
<g>
</g>
<g>
</g>
<g>
</g>
<g>
</g>
<g>
</g>
<g>
</g>
<g>
</g>
<g>
</g>
<g>
</g>
<g>
</g>
<g>
</g>
<g>
</g>
<g>
</g>
<g>
</g>
<g>
</g>
</svg>
