<?xml version="1.0" encoding="iso-8859-1"?>
<!-- Generator: Adobe Illustrator 19.0.0, SVG Export Plug-In . SVG Version: 6.00 Build 0)  -->
<svg version="1.1" id="Capa_1" xmlns="http://www.w3.org/2000/svg" xmlns:xlink="http://www.w3.org/1999/xlink" x="0px" y="0px"
	 viewBox="0 0 496 496" style="enable-background:new 0 0 496 496;" xml:space="preserve">
<g>
	<path style="fill:#0fbcba;" d="M72.152,261.944c0-3.936,0.68-7.832,2.016-11.536l53.072-147.416L120.152,104
		c-8.184,0-80,1.128-80,40c0,18.792,7.392,28.552,12.816,35.056l-1.528,16.8c-1.208,1.208-2.464,2.392-3.816,3.624
		c-6.896,6.24-15.472,14.016-15.472,32.52c0,28.616,34.936,46.416,36.424,47.16l8.624,0.416
		C74.056,274.416,72.152,268.424,72.152,261.944z"/>
	<path style="fill:#0fbcba;" d="M283.4,215.256l-4.056-4.416c-6.832-7.4-13.272-14.384-15.608-21.376
		c-2.576-7.76,0.92-16.568,4.984-26.776c5.864-14.752,13.168-33.112,2.584-54.272c-18.072-36.128-85.632-15.928-96.72-12.32
		L230.136,250.4c1.336,3.704,2.016,7.6,2.016,11.536c0,10.096-4.48,19.072-11.464,25.304c4.12,2.912,8.512,5.28,13.152,6.864
		c5.136,1.76,10.312,2.608,15.376,2.608c15.128,0,29.24-7.608,38.336-21.416C298.08,259.352,300.864,234.592,283.4,215.256z"/>
</g>
<path style="fill:#333333;" d="M496,0H0v416h112.152v56c0,13.232,10.768,24,24,24h32c13.232,0,24-10.768,24-24v-56H496V0z M480,80
	h-96V48h-16v32H256V16h112v16h16V16h96V80z M320,320v-64h104v64H320z M176.152,320v-16h21.944c23.184,0,42.056-18.864,42.056-42.056
	c0-4.872-0.832-9.672-2.496-14.248L182.272,93.824c17.56-4.824,56.36-12.896,78.064,2.184H304v64h-34.224
	c-0.352,0.896-0.712,1.824-1.056,2.696c-1.88,4.728-3.616,9.144-4.704,13.304H368v64h-72.624c0.848,5.432,0.72,10.832-0.2,16H304v64
	H176.152V320z M177.296,80l-6.904-19.176C167.624,53.152,160.296,48,152.152,48s-15.48,5.152-18.232,12.816L128,77.248V16h112v64
	H177.296z M148.968,66.232c0.952-2.672,5.4-2.672,6.368,0l67.272,186.88c1.024,2.832,1.536,5.8,1.536,8.824
	c0,14.368-11.688,26.056-26.056,26.056h-21.944v-72c0-13.232-10.768-24-24-24s-24,10.768-24,24v72H106.2
	c-14.368,0-26.056-11.688-26.056-26.056c0-3.024,0.512-5.992,1.536-8.832L148.968,66.232z M144.152,216c0-4.408,3.584-8,8-8
	s8,3.592,8,8v48H160v56h-15.848L144.152,216L144.152,216z M424,96v64H320V96H424z M440,256h40v64h-40V256z M384,240v-64h96v64H384z
	 M440,160V96h40v64H440z M16,16h96v64H16V16z M35.936,248H16v-72h34.52c-3.016-3.936-6.16-9.032-8.192-16H16V96h32v28.736
	c4.208-4.464,9.744-8.008,16-10.752V96h57.248L66.64,247.688c-1.656,4.584-2.496,9.376-2.496,14.256
	C64.144,285.128,83.008,304,106.2,304h21.944v16H64v-43.424c-4.056-2.456-10.168-6.632-16-12.288V320H16v-56h31.704
	C43.144,259.536,38.856,254.176,35.936,248z M16,400v-64h97.624c-0.896,2.512-1.472,5.184-1.472,8v56H16z M176.152,472
	c0,4.416-3.584,8-8,8h-32c-4.416,0-8-3.584-8-8V344c0-4.416,3.584-8,8-8h32c4.416,0,8,3.584,8,8V472z M190.672,336H240v16h16v-16
	h112v64H256v-32h-16v32h-47.848v-56C192.152,341.184,191.568,338.512,190.672,336z M384,400v-64h96v64H384z"/>
<g>
</g>
<g>
</g>
<g>
</g>
<g>
</g>
<g>
</g>
<g>
</g>
<g>
</g>
<g>
</g>
<g>
</g>
<g>
</g>
<g>
</g>
<g>
</g>
<g>
</g>
<g>
</g>
<g>
</g>
</svg>
