<?xml version="1.0" encoding="iso-8859-1"?>
<!-- Generator: Adobe Illustrator 19.0.0, SVG Export Plug-In . SVG Version: 6.00 Build 0)  -->
<svg version="1.1" id="Capa_1" xmlns="http://www.w3.org/2000/svg" xmlns:xlink="http://www.w3.org/1999/xlink" x="0px" y="0px"
	 viewBox="0 0 496 496" style="enable-background:new 0 0 496 496;" xml:space="preserve">
<g>
	<polygon style="fill:#FFA64D;" points="459.272,407.92 436.016,417.088 420.616,423.152 337.232,456 472,456 	"/>
	<polygon style="fill:#FFA64D;" points="288.576,363.168 432.424,306.496 445.848,357.208 272.024,425.688 	"/>
	<polygon style="fill:#FFA64D;" points="321.672,238.128 405.576,205.072 419,255.784 305.12,300.648 	"/>
</g>
<path style="fill:#333333;" d="M496,400V0H0v400h270.544l-12.968,48.984C247.472,451.808,240,461,240,472v24h256v-24
	c0-11-7.472-20.192-17.584-23.016L465.456,400H496z M16,384V16h464v368h-18.784l-46.592-176H448V48H48v304h208V208h65.376
	l-46.592,176H16z M240,144v48h-48v48c-26.472,0-48-21.528-48-48h-16c0,35.288,28.712,64,64,64v24h16v-72h32v128H64V208h48v-16H64
	v-72h64c32.576,0,59.488-24.48,63.448-56H240v40h16V64h176v128h-21.608l-4.232-16h-76.32l-4.232,16H256v-48H240z M64,104V64h111.28
	c-3.824,22.664-23.536,40-47.28,40H64z M342.16,192h51.688l67.76,256H274.392L342.16,192z M480,480H256v-8c0-4.416,3.584-8,8-8h208
	c4.416,0,8,3.584,8,8V480z"/>
<g>
</g>
<g>
</g>
<g>
</g>
<g>
</g>
<g>
</g>
<g>
</g>
<g>
</g>
<g>
</g>
<g>
</g>
<g>
</g>
<g>
</g>
<g>
</g>
<g>
</g>
<g>
</g>
<g>
</g>
</svg>
