<?xml version="1.0" encoding="iso-8859-1"?>
<!-- Generator: Adobe Illustrator 19.0.0, SVG Export Plug-In . SVG Version: 6.00 Build 0)  -->
<svg version="1.1" id="Capa_1" xmlns="http://www.w3.org/2000/svg" xmlns:xlink="http://www.w3.org/1999/xlink" x="0px" y="0px"
	 viewBox="0 0 496 496" style="enable-background:new 0 0 496 496;" xml:space="preserve">
<g>
	<path style="fill:#FFA64D;" d="M494.664,70.856C459.392,40.624,414.464,24,368,24v48h28.728c12.816,0,25.6,1.264,38.168,3.776
		L496,88V72L494.664,70.856z"/>
	<path style="fill:#FFA64D;" d="M176,72v16l61.104-12.224C249.672,73.264,262.456,72,275.272,72H304V24
		c-46.464,0-91.392,16.624-126.664,46.856L176,72z"/>
	<path style="fill:#FFA64D;" d="M112,304v64l-13.8,48.304C96.896,420.864,92.736,424,88,424s-8.896-3.136-10.2-7.696L64,368v-64H0
		v104c0,48.52,39.48,88,88,88s88-39.48,88-88V304H112z"/>
</g>
<g>
	<path style="fill:#333333;" d="M352,0h-32c-13.232,0-24,10.768-24,24v48c0,10.416,6.712,19.216,16,22.528V496h48V94.528
		c9.288-3.312,16-12.112,16-22.528V24C376,10.768,365.232,0,352,0z M344,480h-16V96h16V480z M360,72c0,4.408-3.592,8-8,8h-32
		c-4.408,0-8-3.592-8-8V24c0-4.408,3.592-8,8-8h32c4.408,0,8,3.592,8,8V72z"/>
	<path style="fill:#333333;" d="M120,0H56C42.768,0,32,10.768,32,24v68.28l24,16V368l14.112,50.504
		C72.376,426.456,79.736,432,88,432s15.624-5.544,17.888-13.496L120,369.12V108.28l24-16V24C144,10.768,133.232,0,120,0z M104,99.72
		v267.16l-13.496,47.232c-0.64,2.224-4.376,2.224-5.016,0L72,366.88V99.72l-24-16V56h48V40H48V24c0-4.408,3.592-8,8-8h64
		c4.408,0,8,3.592,8,8v16h-16v16h16v27.72L104,99.72z"/>
</g>
<g>
</g>
<g>
</g>
<g>
</g>
<g>
</g>
<g>
</g>
<g>
</g>
<g>
</g>
<g>
</g>
<g>
</g>
<g>
</g>
<g>
</g>
<g>
</g>
<g>
</g>
<g>
</g>
<g>
</g>
</svg>
