<?xml version="1.0" encoding="iso-8859-1"?>
<!-- Generator: Adobe Illustrator 19.0.0, SVG Export Plug-In . SVG Version: 6.00 Build 0)  -->
<svg version="1.1" id="Capa_1" xmlns="http://www.w3.org/2000/svg" xmlns:xlink="http://www.w3.org/1999/xlink" x="0px" y="0px"
	 viewBox="0 0 496 496" style="enable-background:new 0 0 496 496;" xml:space="preserve">
<g>
	<path style="fill:#FFA64D;" d="M160,304v168c0,13.232,10.768,24,24,24s24-10.768,24-24V304H160z"/>
	<path style="fill:#FFA64D;" d="M270.408,264.368l-43.672-15.88l-13.544,47.008l45.536,17.08C266.664,315.544,272,323.24,272,331.72
		c0,2.048-0.304,4.072-0.904,6.016l-29.952,97.344c-0.76,2.496-1.144,5.072-1.144,7.64v3.184C240,460.296,251.704,472,266.096,472
		c11.808,0,22.168-7.968,25.216-19.376l26.144-98.04c1.688-6.336,2.544-12.864,2.544-19.416
		C320,303.6,300.072,275.152,270.408,264.368z"/>
	<path style="fill:#FFA64D;" d="M96.904,337.728c-0.6-1.936-0.904-3.96-0.904-6.008c0-8.48,5.336-16.168,13.272-19.152l45.536-17.08
		l-13.544-47.008l-43.672,15.88C67.928,275.152,48,303.6,48,335.168c0,6.544,0.856,13.08,2.544,19.416l26.144,98.04
		C79.736,464.032,90.104,472,101.904,472C116.296,472,128,460.296,128,445.904v-3.184c0-2.568-0.384-5.144-1.152-7.672
		L96.904,337.728z"/>
</g>
<path style="fill:#333333;" d="M232,80V64h264V16H232V0h-96v16H0v48h136v16h24v57.472c-9.288,3.312-16,12.112-16,22.528v41.472
	c-9.288,3.312-16,12.112-16,22.528v40h16v48h80v-48h16v-40c0-10.416-6.712-19.216-16-22.528V160c0-10.416-6.712-19.216-16-22.528V80
	H232z M480,48H264V32h216V48z M248,32v16h-16V32H248z M16,32h88v16H16V32z M120,48V32h16v16H120z M152,16h64v48h-64V16z M208,296
	h-48v-32h48V296z M224,248h-80v-24c0-4.408,3.592-8,8-8h40v-16h-32v-40c0-4.408,3.592-8,8-8h32c4.408,0,8,3.592,8,8v40v8v8h8
	c4.408,0,8,3.592,8,8V248z M192,136h-16V80h16V136z"/>
<g>
</g>
<g>
</g>
<g>
</g>
<g>
</g>
<g>
</g>
<g>
</g>
<g>
</g>
<g>
</g>
<g>
</g>
<g>
</g>
<g>
</g>
<g>
</g>
<g>
</g>
<g>
</g>
<g>
</g>
</svg>
