<?xml version="1.0" encoding="iso-8859-1"?>
<!-- Generator: Adobe Illustrator 19.0.0, SVG Export Plug-In . SVG Version: 6.00 Build 0)  -->
<svg version="1.1" id="Capa_1" xmlns="http://www.w3.org/2000/svg" xmlns:xlink="http://www.w3.org/1999/xlink" x="0px" y="0px"
	 viewBox="0 0 499.312 499.312" style="enable-background:new 0 0 499.312 499.312;" xml:space="preserve">
<g>
	<rect x="144" y="483.312" style="fill:#333333;" width="320" height="16"/>
	<rect x="480" y="483.312" style="fill:#333333;" width="16" height="16"/>
</g>
<path style="fill:#FFA64D;" d="M144,499.312c-79.4,0-144-64.6-144-144s64.6-144,144-144c32.176,0,62.696,10.496,88.24,30.36
	l7.152,5.56l-34.056,34.056l-5.512-3.96C183.4,265.536,164.096,259.312,144,259.312c-52.936,0-96,43.064-96,96s43.064,96,96,96
	s96-43.064,96-96c0-20.096-6.224-39.4-18.016-55.824l-3.96-5.512l34.056-34.056l5.56,7.152c19.856,25.544,30.36,56.064,30.36,88.24
	C288,434.712,223.4,499.312,144,499.312z"/>
<path style="fill:#333333;" d="M424,0l-24,24v38.624l0.688,0.688l-84,84h-56L224,184v56l-62.24,62.24
	c-5.736-1.936-11.68-2.928-17.76-2.928c-30.872,0-56,25.12-56,56s25.128,56,56,56s56-25.12,56-56c0-6.072-0.992-12.024-2.928-17.76
	l74.064-74.064l18.464,24.624l12.8-9.6l-19.84-26.448L436,98.624l0.688,0.688h38.624l24-24L424,0z M240,190.624l27.312-27.312
	h33.376L240,224V190.624z M190.256,321.744l-35.912,35.912l11.312,11.312l18.096-18.096c0.16,1.472,0.248,2.952,0.248,4.44
	c0,22.056-17.944,40-40,40s-40-17.944-40-40s17.944-40,40-40c1.432,0,2.824,0.296,4.232,0.456l-17.888,17.888l11.312,11.312
	L412,74.624l12.688,12.688L190.256,321.744z M468.688,83.312h-25.376L416,56V30.624l8-8l52.688,52.688L468.688,83.312z"/>
<g>
</g>
<g>
</g>
<g>
</g>
<g>
</g>
<g>
</g>
<g>
</g>
<g>
</g>
<g>
</g>
<g>
</g>
<g>
</g>
<g>
</g>
<g>
</g>
<g>
</g>
<g>
</g>
<g>
</g>
</svg>
