<?xml version="1.0" encoding="iso-8859-1"?>
<!-- Generator: Adobe Illustrator 19.0.0, SVG Export Plug-In . SVG Version: 6.00 Build 0)  -->
<svg version="1.1" id="Capa_1" xmlns="http://www.w3.org/2000/svg" xmlns:xlink="http://www.w3.org/1999/xlink" x="0px" y="0px"
	 viewBox="0 0 496 496" style="enable-background:new 0 0 496 496;" xml:space="preserve">
<g>
	<path style="fill:#0fbcba;" d="M442.448,136h-0.008H442.448L442.448,136c0-59.168-45.88-107.616-104-111.72V16c0-4.416-3.584-8-8-8
		h-16c-4.416,0-8,3.584-8,8v8.28c-58.12,4.104-104,52.552-104,111.72l0,0c0.008,0,0.008,0,0.016,0h-0.016c-4.416,0-8,3.584-8,8v16
		c0,4.416,3.584,8,8,8h240c4.416,0,8-3.584,8-8v-16C450.448,139.584,446.864,136,442.448,136z"/>
	<path style="fill:#0fbcba;" d="M178.448,304h-128v-64h128V304z"/>
</g>
<g>
	<path style="fill:#333333;" d="M366.448,232c11.032,0,20-8.968,20-20s-8.968-20-20-20s-20,8.968-20,20S355.416,232,366.448,232z
		 M366.448,208c2.2,0,4,1.8,4,4s-1.8,4-4,4s-4-1.8-4-4S364.248,208,366.448,208z"/>
	<path style="fill:#333333;" d="M298.448,212c0-11.032-8.968-20-20-20s-20,8.968-20,20s8.968,20,20,20S298.448,223.032,298.448,212z
		 M274.448,212c0-2.2,1.8-4,4-4s4,1.8,4,4s-1.8,4-4,4S274.448,214.2,274.448,212z"/>
	<path style="fill:#333333;" d="M282.448,264c0,22.056,17.944,40,40,40s40-17.944,40-40h-16c0,13.232-10.768,24-24,24
		s-24-10.768-24-24H282.448z"/>
	<path style="fill:#333333;" d="M210.448,448h283.104l-26.376-79.12c-3.288-9.856-9.136-18.384-16.728-24.872v-170.24
		c4.76-2.776,8-7.88,8-13.776v-16c0-6.008-3.376-11.192-8.288-13.928c-2.864-57.552-46.792-105.24-103.712-112.872V16
		c0-8.824-7.176-16-16-16h-16c-8.824,0-16,7.176-16,16v1.192c-56.92,7.632-100.848,55.32-103.712,112.872
		c-4.912,2.744-8.288,7.928-8.288,13.936v16c0,5.896,3.24,11,8,13.776V208h-16v-32h-56v-32h-16v32h-56v32h-32v272h-16v16h224v-16
		h-16V448z M210.448,352.232c4.248-2.52,8.944-4.28,13.824-5.096l36.328-6.056l-11.536,28.84l16.232,16.232l-8,24L279.136,432
		h-68.688V352.232z M242.448,176h160v64c0,44.112-35.888,80-80,80s-80-35.888-80-80V176z M377.056,366.072l-15.768,15.768l8,24
		L343.136,432h-2.792l18.96-88.496c0.848-2.008,1.544-4.088,2.056-6.24l4.472,0.744L377.056,366.072z M267.84,366.072l11.224-28.056
		l4.472-0.744c0.512,2.152,1.208,4.232,2.056,6.24L304.552,432h-2.792l-26.16-26.168l8-24L267.84,366.072z M344.08,338.216
		c-3.856,8.12-12.064,13.784-21.632,13.784s-17.776-5.664-21.632-13.784l-1.08-5.04c7.296,1.776,14.872,2.824,22.712,2.824
		s15.416-1.048,22.712-2.824L344.08,338.216z M306.456,364.512c4.912,2.168,10.28,3.488,15.992,3.488s11.08-1.32,15.992-3.488
		L323.984,432h-3.072L306.456,364.512z M471.344,432h-38.336l-6.712-33.568l-15.688,3.144l6.08,30.424H365.76l21.84-21.832l-8-24
		l16.232-16.232l-11.536-28.84l36.328,6.056c14.648,2.448,26.672,12.712,31.376,26.808L471.344,432z M423.256,331.36l-52.216-8.704
		c28.312-16.712,47.408-47.456,47.408-82.656v-64h16v158.568C430.864,333.168,427.152,332.008,423.256,331.36z M434.056,128h-15.608
		v16h24v16h-240v-16h200v-16h-30.216l15.92-78.32C413.96,67.04,431.552,95.56,434.056,128z M314.448,16h16v80h-16l-0.016-80H314.448
		z M314.448,112h16c8.824,0,16-7.176,16-16V33.28c9.52,1.48,18.584,4.272,27.048,8.16L355.904,128h-66.92l-17.576-86.56
		c8.464-3.888,17.52-6.68,27.04-8.16V96C298.448,104.824,305.624,112,314.448,112z M256.744,49.68L272.656,128H210.84
		C213.344,95.56,230.936,67.04,256.744,49.68z M210.448,176h16v64c0,35.2,19.096,65.944,47.408,82.656l-52.216,8.704
		c-3.832,0.632-7.576,1.744-11.192,3.16V216v-8L210.448,176L210.448,176z M34.448,224h96v-16h-64v-16h96v16h-16v16h48v256h-32v-80
		h16v-16h-128v16h16v80h-32V224z M106.448,400v80h-24v-80H106.448z M122.448,400h24v80h-24V400z"/>
	<rect x="50.448" y="320" style="fill:#333333;" width="128" height="16"/>
	<rect x="50.448" y="352" style="fill:#333333;" width="128" height="16"/>
</g>
<g>
</g>
<g>
</g>
<g>
</g>
<g>
</g>
<g>
</g>
<g>
</g>
<g>
</g>
<g>
</g>
<g>
</g>
<g>
</g>
<g>
</g>
<g>
</g>
<g>
</g>
<g>
</g>
<g>
</g>
</svg>
