<?xml version="1.0" encoding="iso-8859-1"?>
<!-- Generator: Adobe Illustrator 19.0.0, SVG Export Plug-In . SVG Version: 6.00 Build 0)  -->
<svg version="1.1" id="Capa_1" xmlns="http://www.w3.org/2000/svg" xmlns:xlink="http://www.w3.org/1999/xlink" x="0px" y="0px"
	 viewBox="0 0 496 496" style="enable-background:new 0 0 496 496;" xml:space="preserve">
<polygon style="fill:#FFA64D;" points="496,480 168,480 168,472 176,456 176,320 192,320 192,120 208,96 416,96 496,176 "/>
<g>
	<path style="fill:#333333;" d="M104,176v88c0,17.648,14.352,32,32,32s32-14.352,32-32v-88c0-17.648-14.352-32-32-32
		S104,158.352,104,176z M120,176c0-8.824,7.176-16,16-16s16,7.176,16,16v88c0,8.824-7.176,16-16,16s-16-7.176-16-16V176z"/>
	<path style="fill:#333333;" d="M200,123.312l16-16V80H88V64h128V40c0-22.056-17.944-40-40-40H54.896C24.624,0,0,24.632,0,54.896
		C0,73.112,8.96,90.04,24,100.28v32.64C9.104,145.848,0,164.84,0,185.848c0,21,9.328,39.832,24,52.696V264c0,17.648,14.352,32,32,32
		c5.856,0,11.272-1.696,16-4.448V328h16v120c0,26.472,21.528,48,48,48s48-21.528,48-48V328h16V123.312z M72,208
		c-13.232,0-24-10.768-24-24s10.768-24,24-24V208z M33.32,87.272C22.48,80.04,16,67.936,16,54.896C16,33.448,33.456,16,54.896,16
		H176c13.232,0,24,10.768,24,24v8h-16V32h-16v16h-16V32h-16v16h-16V32h-16v16H88V32H72v16v8v57.712l-17.072,3.656
		c-5.264,1.176-10.232,2.952-14.928,5.168V91.72L33.32,87.272z M16,185.848c0-25.576,17.44-47.312,42.4-52.856l13.6-3.024V144
		c-22.056,0-40,17.944-40,40s17.944,40,40,40v16h-1.848C40.288,240,16,215.712,16,185.848z M56,280c-8.824,0-16-7.176-16-16v-14.904
		C49.152,253.472,59.344,256,70.152,256H72v8C72,272.824,64.824,280,56,280z M168,448c0,17.648-14.352,32-32,32s-32-14.352-32-32
		V328h64V448z M184,312H88v-48v-16l0,0v-8V128h16v-16H88V96h112v4.688L188.688,112H120v16h64V312z"/>
	<path style="fill:#333333;" d="M136,464c13.232,0,24-10.768,24-24s-10.768-24-24-24s-24,10.768-24,24S122.768,464,136,464z
		 M136,432c4.416,0,8,3.592,8,8s-3.584,8-8,8s-8-3.592-8-8S131.584,432,136,432z"/>
	<polygon style="fill:#333333;" points="416,176 416,96 400,96 400,192 496,192 496,176 	"/>
	<path style="fill:#333333;" d="M368,128H232v32h-16v288h168V160h-16V128z M248,144h104v16H248V144z M320,368v64h-40v-64H320z
		 M368,432h-32v-64h16v-16H248v16h16v64h-32V176h136V432z"/>
	<path style="fill:#333333;" d="M352,192H248v56h104V192z M336,232h-72v-24h72V232z"/>
	<rect x="248" y="264" style="fill:#333333;" width="104" height="16"/>
	<rect x="248" y="296" style="fill:#333333;" width="104" height="16"/>
	<rect x="400" y="432" style="fill:#333333;" width="16" height="16"/>
	<rect x="400" y="400" style="fill:#333333;" width="16" height="16"/>
	<rect x="400" y="368" style="fill:#333333;" width="16" height="16"/>
</g>
<g>
</g>
<g>
</g>
<g>
</g>
<g>
</g>
<g>
</g>
<g>
</g>
<g>
</g>
<g>
</g>
<g>
</g>
<g>
</g>
<g>
</g>
<g>
</g>
<g>
</g>
<g>
</g>
<g>
</g>
</svg>
