<?xml version="1.0" encoding="iso-8859-1"?>
<!-- Generator: Adobe Illustrator 19.0.0, SVG Export Plug-In . SVG Version: 6.00 Build 0)  -->
<svg version="1.1" id="Capa_1" xmlns="http://www.w3.org/2000/svg" xmlns:xlink="http://www.w3.org/1999/xlink" x="0px" y="0px"
	 viewBox="0 0 496 496" style="enable-background:new 0 0 496 496;" xml:space="preserve">
<g>
	<path style="fill:#333333;" d="M456,304H352v-24c0-1.736-0.208-3.424-0.56-5.056l53.488-122.256
		c2.48-5.664,2.32-12.088-0.448-17.616l-1.792-3.584C399.144,124.4,392.024,120,384.104,120c-5.08,0-9.784,2.04-13.504,5.272
		L121.488,27.144l-3.128-6.888C112.76,7.952,100.416,0,86.904,0h-4.352C64.768,0,50.248,13.56,48.376,30.856l-0.288-0.04l-24,160
		L24,208h16v-15.4L58.848,66.944l12.68,29.592L40.312,205.8l15.384,4.4l25.824-90.368l111.136,259.32l0.176-0.08l-0.672,3.352
		L192,400h16v-15.208l21.272-106.36c0.744-3.728,4.048-6.432,7.848-6.432H328c4.408,0,8,3.592,8,8v72h16v-32h104
		c4.408,0,8,3.592,8,8v8h-96v56h16v-40h16v40h16v-40h16v40h16v-40h16v48h16v-72C480,314.768,469.232,304,456,304z M349.176,166.208
		l-51.208-20.864l22.592-22.592l41.392,16.304L349.176,166.208z M269.544,133.768l22.312-22.312l12.464,4.912L281.888,138.8
		L269.544,133.768z M275.632,105.056l-22.16,22.16L147.32,83.968L131.008,48.08L275.632,105.056z M107.032,110.464l-4.72,17.296
		l-10.72-25.016L107.032,110.464z M97.888,88l17.68-8.84l-4.24,15.56L97.888,88z M121.632,117.76l28.928,14.464l-7.8,28.608
		l-29.24-13.288L121.632,117.76z M138.488,176.464l-5.952,21.816l-13.056-30.456L138.488,176.464z M144.96,213.552l8.288-30.384
		l22.128,10.056l-8.384,30.744L144.96,213.552z M162.712,239.648l-4.84,17.752l-10.768-25.128L162.712,239.648z M187.256,210.48
		l13.36,29.392l-18.936-8.952L187.256,210.48z M157.512,167.536l3.832-14.056l9.048,19.912L157.512,167.536z M125.928,102.016
		l4.512-16.536l11.056,24.32L125.928,102.016z M64,34.552C64,24.32,72.32,16,82.552,16h4.352c7.256,0,13.888,4.272,16.888,10.872
		l5.48,12.048l-0.208,0.52l0.536,0.216l9.112,20.048l-37.528,18.76l-15.68-36.616C64.504,39.528,64,37.08,64,34.552z
		 M198.296,351.72l-30.288-70.68l9.392-34.448l33.456,15.824l3.968,8.72c-0.528,1.328-0.952,2.712-1.24,4.152L198.296,351.72z
		 M226.648,258.504L156.96,105.176l128.624,52.4l0.072,0.072l0.032-0.032l56.664,23.088L306.92,256h-69.8
		C233.384,256,229.848,256.944,226.648,258.504z M328,256h-3.392l55.176-117.256c1.56-3.32,6.96-3.376,8.592-0.104l1.792,3.584
		c0.64,1.272,0.672,2.744,0.104,4.048l-49.624,113.416C336.968,257.392,332.656,256,328,256z"/>
	<rect x="336" y="368" style="fill:#333333;" width="16" height="24"/>
	<path style="fill:#333333;" d="M320,288h-78.56l-9.288,46.432L232,352h88V288z M304,336h-55.84l6.4-32H304V336z"/>
</g>
<path style="fill:#FFA64D;" d="M440,496H232c-30.872,0-56-25.128-56-56s25.128-56,56-56h208c30.872,0,56,25.128,56,56
	S470.872,496,440,496z"/>
<g>
	<path style="fill:#333333;" d="M432,408c-9.6,0-18.128,4.336-24,11.056c-5.872-6.72-14.4-11.056-24-11.056s-18.128,4.336-24,11.056
		c-5.872-6.72-14.4-11.056-24-11.056s-18.128,4.336-24,11.056c-5.872-6.72-14.4-11.056-24-11.056s-18.128,4.336-24,11.056
		c-5.872-6.72-14.4-11.056-24-11.056c-17.648,0-32,14.352-32,32s14.352,32,32,32c9.6,0,18.128-4.336,24-11.056
		c5.872,6.72,14.4,11.056,24,11.056s18.128-4.336,24-11.056c5.872,6.72,14.4,11.056,24,11.056s18.128-4.336,24-11.056
		c5.872,6.72,14.4,11.056,24,11.056s18.128-4.336,24-11.056c5.872,6.72,14.4,11.056,24,11.056c17.648,0,32-14.352,32-32
		S449.648,408,432,408z M240,456c-8.824,0-16-7.176-16-16s7.176-16,16-16s16,7.176,16,16S248.824,456,240,456z M288,456
		c-8.824,0-16-7.176-16-16s7.176-16,16-16s16,7.176,16,16S296.824,456,288,456z M336,456c-8.824,0-16-7.176-16-16s7.176-16,16-16
		s16,7.176,16,16S344.824,456,336,456z M384,456c-8.824,0-16-7.176-16-16s7.176-16,16-16s16,7.176,16,16S392.824,456,384,456z
		 M432,456c-8.824,0-16-7.176-16-16s7.176-16,16-16s16,7.176,16,16S440.824,456,432,456z"/>
	<path style="fill:#333333;" d="M32,304c0,4.408-3.592,8-8,8s-8-3.592-8-8v-8H0v8c0,13.232,10.768,24,24,24s24-10.768,24-24v-48H32
		V304z"/>
</g>
<path style="fill:#FFA64D;" d="M48,264H32c-8.824,0-16-7.176-16-16v-32c0-8.824,7.176-16,16-16h16c8.824,0,16,7.176,16,16v32
	C64,256.824,56.824,264,48,264z"/>
<g>
</g>
<g>
</g>
<g>
</g>
<g>
</g>
<g>
</g>
<g>
</g>
<g>
</g>
<g>
</g>
<g>
</g>
<g>
</g>
<g>
</g>
<g>
</g>
<g>
</g>
<g>
</g>
<g>
</g>
</svg>
