<?xml version="1.0" encoding="iso-8859-1"?>
<!-- Generator: Adobe Illustrator 19.0.0, SVG Export Plug-In . SVG Version: 6.00 Build 0)  -->
<svg version="1.1" id="Capa_1" xmlns="http://www.w3.org/2000/svg" xmlns:xlink="http://www.w3.org/1999/xlink" x="0px" y="0px"
	 viewBox="0 0 496 496" style="enable-background:new 0 0 496 496;" xml:space="preserve">
<path style="fill:#0fbcba;" d="M352,48c-79.4,0-144,64.6-144,144v48h288v-48C496,112.6,431.4,48,352,48z"/>
<g>
	<path style="fill:#333333;" d="M496,240h-32v16h16v16H224v-16h224v-16H224v-48h-48v32.208c-6.704-5.08-14.96-8.208-24-8.208H88v-48
		c0-1.432-0.248-2.8-0.608-4.12c2.528-1.4,4.928-3.008,7.008-5.056c3.136,0.784,6.352,1.176,9.6,1.176c22.056,0,40-17.944,40-40
		c0-2.944-0.4-5.856-1.032-8.704C161.696,107.976,176,91.672,176,72c0-12.656-6.024-24.488-16-31.992V40c0-22.056-17.944-40-40-40
		S80,17.944,80,40c0,3.032,0.408,5.968,1.048,8.808C66.744,52,56,64.752,56,80c0,9.48,4.272,18.344,11.296,24.344
		C51.872,106.624,40,119.952,40,136c0,7.216,2.488,13.808,6.536,19.168C42.592,158.08,40,162.728,40,168v55.6
		C16.336,235.408,0,259.8,0,288v136c0,13.232,10.768,24,24,24h32v-16H24c-4.408,0-8-3.592-8-8v-8h48v-16H16V288
		c0-30.88,25.12-56,56-56h80c13.232,0,24,10.768,24,24v128h248h8v16h-40v16h40v8c0,4.408-3.592,8-8,8h-24v16h24
		c13.232,0,24-10.768,24-24v-40h48V240z M71.48,119.976l7.768,0.4l1.6-6.288c2.192-8.592,8.848-15.256,17.368-17.376l-3.872-15.52
		c-6.808,1.696-12.856,5.168-17.76,9.832C73.768,88.08,72,84.2,72,80c0-8.824,7.176-16,16-16c0.08,0,0.144,0.024,0.224,0.024
		C95.536,73.664,106.992,80,120,80V64c-13.232,0-24-10.768-24-24s10.768-24,24-24s24,10.768,24,24c0,7.56-3.456,14.528-9.488,19.12
		l9.688,12.736c4.832-3.68,8.648-8.296,11.336-13.48C158.296,62.336,160,67.016,160,72c0,13.232-10.768,24-24,24
		c-6.384,0-12.392-2.48-16.92-6.984l-11.28,11.352c5.072,5.04,11.304,8.4,18.04,10.168c1.296,2.992,2.16,6.168,2.16,9.464
		c0,13.232-10.768,24-24,24c-3.136,0-6.216-0.616-9.16-1.832l-5.992-2.48l-3.664,5.344C82.192,149.392,77.264,152,72,152
		c-8.824,0-16-7.176-16-16S63.176,120,71.48,119.976z M56,217.856V168h16v48C66.496,216,61.152,216.68,56,217.856z M256,336h-32v-16
		h32V336z M256,352v16h-32v-16H256z M272,288h16v80h-16V288z M336,336h-32v-16h32V336z M336,304h-32v-16h32V304z M304,352h32v16h-32
		V352z M352,288h16v80h-16V288z M416,336h-32v-16h32V336z M416,304h-32v-16h32V304z M384,352h32v16h-32V352z M432,288h16v80h-16V288
		z M464,320h16v16h-16V320z M464,304v-16h16v16H464z M256,288v16h-32v-16H256z M192,256L192,256v-48h16v160h-16V256z M464,368v-16
		h16v16H464z"/>
	<rect x="168" y="432" style="fill:#333333;" width="120" height="16"/>
	<rect x="160" y="400" style="fill:#333333;" width="136" height="16"/>
</g>
<g>
	<path style="fill:#0fbcba;" d="M112,496c-35.288,0-64-28.712-64-64s28.712-64,64-64s64,28.712,64,64S147.288,496,112,496z"/>
	<path style="fill:#0fbcba;" d="M344,496c-35.288,0-64-28.712-64-64s28.712-64,64-64s64,28.712,64,64S379.288,496,344,496z"/>
</g>
<g>
	<path style="fill:#333333;" d="M112,400c-17.648,0-32,14.352-32,32s14.352,32,32,32s32-14.352,32-32S129.648,400,112,400z M112,448
		c-8.824,0-16-7.176-16-16s7.176-16,16-16s16,7.176,16,16S120.824,448,112,448z"/>
	<path style="fill:#333333;" d="M344,400c-17.648,0-32,14.352-32,32s14.352,32,32,32s32-14.352,32-32S361.648,400,344,400z M344,448
		c-8.824,0-16-7.176-16-16s7.176-16,16-16s16,7.176,16,16S352.824,448,344,448z"/>
	<path style="fill:#333333;" d="M160,264c0-8.824-7.176-16-16-16H80c-26.472,0-48,21.528-48,48v48h128V264z M48,304h24
		c4.408,0,8,3.592,8,8v16H48V304z M144,328H96v-16c0-13.232-10.768-24-24-24H49.136c3.576-13.76,16-24,30.864-24h64V328z"/>
	<rect x="344" y="88" style="fill:#333333;" width="16" height="16"/>
	<rect x="272" y="136" style="fill:#333333;" width="16" height="16"/>
	<rect x="408" y="136" style="fill:#333333;" width="16" height="16"/>
	<rect x="240" y="200" style="fill:#333333;" width="16" height="16"/>
	<rect x="288" y="184" style="fill:#333333;" width="16" height="16"/>
	<rect x="336" y="168" style="fill:#333333;" width="16" height="16"/>
	<rect x="384" y="200" style="fill:#333333;" width="16" height="16"/>
	<rect x="440" y="176" style="fill:#333333;" width="16" height="16"/>
	<rect x="320" y="120" style="fill:#333333;" width="16" height="16"/>
	<rect x="392" y="104" style="fill:#333333;" width="16" height="16"/>
	<rect x="376" y="152" style="fill:#333333;" width="16" height="16"/>
	<rect x="320" y="208" style="fill:#333333;" width="16" height="16"/>
	<rect x="432" y="208" style="fill:#333333;" width="16" height="16"/>
	<rect x="288" y="104" style="fill:#333333;" width="16" height="16"/>
</g>
<g>
</g>
<g>
</g>
<g>
</g>
<g>
</g>
<g>
</g>
<g>
</g>
<g>
</g>
<g>
</g>
<g>
</g>
<g>
</g>
<g>
</g>
<g>
</g>
<g>
</g>
<g>
</g>
<g>
</g>
</svg>
