<?xml version="1.0" encoding="iso-8859-1"?>
<!-- Generator: Adobe Illustrator 19.0.0, SVG Export Plug-In . SVG Version: 6.00 Build 0)  -->
<svg version="1.1" id="Capa_1" xmlns="http://www.w3.org/2000/svg" xmlns:xlink="http://www.w3.org/1999/xlink" x="0px" y="0px"
	 viewBox="0 0 496 496" style="enable-background:new 0 0 496 496;" xml:space="preserve">
<g>
	<path style="fill:#FFA64D;" d="M336,416c0,44.112,35.888,80,80,80s80-35.888,80-80c0-26.184-12.704-49.4-32.208-64h-95.584
		C348.704,366.6,336,389.816,336,416z"/>
	<path style="fill:#FFA64D;" d="M189.968,334.312L147.168,371c3.096,6.344,4.832,13.464,4.832,21c0,26.512-21.488,48-48,48
		s-48-21.488-48-48s21.488-48,48-48c5.952,0,11.656,1.08,16.92,3.064l0.024,0.016l33.544-45.744l-0.76-0.712
		C138.552,292.368,121.36,288,104,288C46.656,288,0,334.656,0,392s46.656,104,104,104s104-46.656,104-104
		c0-20.072-5.728-39.544-16.56-56.328L189.968,334.312z"/>
</g>
<g>
	<path style="fill:#333333;" d="M272,416v-32h-64.32c0.2,2.656,0.32,5.32,0.32,8c0,2.704-0.2,5.352-0.408,8H256v16h-50.904
		c-1.304,5.504-2.968,10.872-5.12,16h137.64c-1.056-5.168-1.616-10.52-1.616-16H272z"/>
	<path style="fill:#333333;" d="M416,384c-17.648,0-32,14.352-32,32s14.352,32,32,32s32-14.352,32-32S433.648,384,416,384z M416,432
		c-8.824,0-16-7.176-16-16s7.176-16,16-16s16,7.176,16,16S424.824,432,416,432z"/>
	<path style="fill:#333333;" d="M472,240h-8v-24c0-13.232-10.768-24-24-24h-16V62.528c9.288-3.312,16-12.112,16-22.528V24
		c0-13.232-10.768-24-24-24H192c-13.232,0-24,10.768-24,24v16c0,9.6,5.696,17.832,13.856,21.672
		c-14.424,44.896-24.744,90.792-30.912,137.296C143.608,189.92,132.536,184,120,184c-22.056,0-40,17.944-40,40s17.944,40,40,40
		c9.792,0,18.656-3.672,25.616-9.544c-0.968,15.84-1.6,31.712-1.608,47.632l-26.272,35.824C113.248,336.784,108.688,336,104,336
		c-30.88,0-56,25.12-56,56s25.12,56,56,56s56-25.12,56-56c0-6.472-1.072-12.736-3.2-18.72l55.144-47.264
		C219.6,319.448,224,309.888,224,299.792v-1.24C224,279.496,208.504,264,189.456,264c-10.96,0-21.376,5.28-27.864,14.12
		l-1.136,1.544c0.552-18.624,1.8-37.184,3.688-55.664h20.952c12.528,0,23.048-9.792,23.944-22.288l5.712-80
		c0.472-6.624-1.848-13.208-6.376-18.064c-4.52-4.864-10.92-7.648-17.56-7.648h-2.552c2.984-10.72,6.168-21.392,9.624-32H240v280
		h-43.776c2.688,5.152,4.912,10.496,6.696,16H496v-96C496,250.768,485.232,240,472,240z M120,248c-13.232,0-24-10.768-24-24
		s10.768-24,24-24s24,10.768,24,24S133.232,248,120,248z M144,392c0,22.056-17.944,40-40,40s-40-17.944-40-40s17.944-40,40-40
		c1.08,0,2.136,0.2,3.2,0.288l-23.392,31.904C81.32,387.592,80,391.616,80,396.32C80,407.168,88.832,416,99.68,416
		c4.696,0,9.248-1.68,12.808-4.736l30.816-26.416C143.728,387.192,144,389.568,144,392z M174.496,287.576
		c3.48-4.744,9.072-7.576,14.96-7.576C199.68,280,208,288.32,208,298.544v1.24c0,5.424-2.36,10.552-6.48,14.08l-99.448,85.256
		C99.88,401,96,399.44,96,395.824c0-0.784,0.248-1.536,0.712-2.176L174.496,287.576z M448,216v24h-64v-16h16v-16h40
		C444.408,208,448,211.592,448,216z M384,200v8h-48v-8c0-13.232,10.768-24,24-24S384,186.768,384,200z M336,344h-48v-16h48V344z
		 M352,224h16v120h-16V224z M184,24c0-4.408,3.592-8,8-8h224c4.408,0,8,3.592,8,8v16c0,4.408-3.592,8-8,8H192c-4.408,0-8-3.592-8-8
		V24z M190.816,112c2.248,0,4.328,0.904,5.856,2.544c1.528,1.648,2.288,3.784,2.128,6.024l-5.712,80
		c-0.304,4.168-3.808,7.432-7.984,7.432h-19.28c3.984-32.344,10.096-64.376,18.16-96H190.816z M376,64v16h16V64h16v128h-8.808
		c-1.216-5.944-3.856-11.328-7.392-16h0.2V96h-16v67.392c-4.912-2.16-10.304-3.392-16-3.392c-22.056,0-40,17.944-40,40v24h16v16h-80
		V64H376z M256,256h80v56h-64v32h-16V256z M480,344h-96v-88h80h8c4.408,0,8,3.592,8,8V344z"/>
</g>
<g>
</g>
<g>
</g>
<g>
</g>
<g>
</g>
<g>
</g>
<g>
</g>
<g>
</g>
<g>
</g>
<g>
</g>
<g>
</g>
<g>
</g>
<g>
</g>
<g>
</g>
<g>
</g>
<g>
</g>
</svg>
