<?xml version="1.0" encoding="iso-8859-1"?>
<!-- Generator: Adobe Illustrator 19.0.0, SVG Export Plug-In . SVG Version: 6.00 Build 0)  -->
<svg version="1.1" id="Capa_1" xmlns="http://www.w3.org/2000/svg" xmlns:xlink="http://www.w3.org/1999/xlink" x="0px" y="0px"
	 viewBox="0 0 496 496" style="enable-background:new 0 0 496 496;" xml:space="preserve">
<g>
	<path style="fill:#333333;" d="M464,305.472V296c0-13.232-10.768-24-24-24h-89.472c-3.312-9.288-12.112-16-22.528-16V155.896
		c0-20.08-10.832-38.728-28.28-48.656L146.368,19.872C139.408,8.048,126.688,0,112,0C90.04,0,72.176,17.808,72.024,39.736h-0.016
		L64.24,272.784C45.888,276.408,32,292.6,32,312c0,8.592,2.784,16.52,7.416,23.048L16.656,361.6C5.912,374.136,0,390.136,0,406.648
		c0,18.488,7.2,35.864,20.272,48.944l24.008,24.016C54.864,490.176,68.928,496,83.88,496H144h8h16v-16h-16v-43.84l-27.48-21.984
		c-8.344-6.672-13.584-16.2-14.768-26.824l-5.736-51.632C108.968,329.072,112,320.912,112,312c0-12.4-5.792-23.36-14.68-30.704
		l37.192-208.272c1.408-0.968,2.664-2.12,3.944-3.256l82.08,82.08C217.72,156.608,216,162.088,216,168
		c0,14.864,10.232,27.288,24,30.864V256h-2.88c-11.408,0-21.304,8.12-23.528,19.296L192.16,382.432L192,408h16v-23.208
		l21.272-106.36c0.744-3.728,4.04-6.432,7.848-6.432H328c4.416,0,8,3.592,8,8v112h16v-72h16v-16h-16v-16h88c4.416,0,8,3.592,8,8v8
		h-64v16h72c4.416,0,8,3.592,8,8v80h16v-80C480,317.584,473.288,308.784,464,305.472z M112,16c13.232,0,24,10.768,24,24
		s-10.768,24-24,24S88,53.232,88,40S98.768,16,112,16z M72,288c13.232,0,24,10.768,24,24s-10.768,24-24,24s-24-10.768-24-24
		S58.768,288,72,288z M114.52,426.664L136,443.84V448h-16v16h16v16H83.88c-10.68,0-20.728-4.16-28.288-11.712L31.584,444.28
		C21.536,434.216,16,420.856,16,406.648c0-12.696,4.544-24.992,12.816-34.632l22.328-26.048C57.232,349.72,64.336,352,72,352
		c6.208,0,12.024-1.544,17.272-4.08l4.576,41.2C95.504,403.992,102.84,417.32,114.52,426.664z M82.456,273.56
		c-0.752-0.208-1.448-0.528-2.216-0.688l6.728-201.928C93.848,76.52,102.48,80,112,80c1.752,0,3.416-0.296,5.112-0.52L82.456,273.56
		z M232,168c0-8.824,7.176-16,16-16s16,7.176,16,16s-7.176,16-16,16S232,176.824,232,168z M256,198.864
		c13.768-3.576,24-16,24-30.864c0-17.648-14.352-32-32-32c-5.92,0-11.392,1.728-16.152,4.536L148.152,56.84
		c2.208-4.728,3.512-9.92,3.704-15.424l139.936,79.728C304.256,128.24,312,141.552,312,155.896V256h-56V198.864z"/>
	<path style="fill:#333333;" d="M328,288h-86.552l-9.288,46.432L232,352h96V288z M312,336h-63.84l6.4-32H312V336z"/>
	<rect x="416" y="336" style="fill:#333333;" width="32" height="16"/>
</g>
<path style="fill:#FFA64D;" d="M440,496H232c-30.872,0-56-25.128-56-56s25.128-56,56-56h208c30.872,0,56,25.128,56,56
	S470.872,496,440,496z"/>
<g>
	<path style="fill:#333333;" d="M432,408c-9.608,0-18.128,4.336-24,11.056c-5.872-6.72-14.392-11.056-24-11.056
		s-18.128,4.336-24,11.056c-5.872-6.72-14.392-11.056-24-11.056s-18.128,4.336-24,11.056c-5.872-6.72-14.392-11.056-24-11.056
		s-18.128,4.336-24,11.056c-5.872-6.72-14.392-11.056-24-11.056c-17.648,0-32,14.352-32,32s14.352,32,32,32
		c9.608,0,18.128-4.336,24-11.056c5.872,6.72,14.392,11.056,24,11.056s18.128-4.336,24-11.056c5.872,6.72,14.392,11.056,24,11.056
		s18.128-4.336,24-11.056c5.872,6.72,14.392,11.056,24,11.056s18.128-4.336,24-11.056c5.872,6.72,14.392,11.056,24,11.056
		c17.648,0,32-14.352,32-32S449.648,408,432,408z M240,456c-8.824,0-16-7.176-16-16s7.176-16,16-16s16,7.176,16,16
		S248.824,456,240,456z M288,456c-8.824,0-16-7.176-16-16s7.176-16,16-16s16,7.176,16,16S296.824,456,288,456z M336,456
		c-8.824,0-16-7.176-16-16s7.176-16,16-16s16,7.176,16,16S344.824,456,336,456z M384,456c-8.824,0-16-7.176-16-16s7.176-16,16-16
		s16,7.176,16,16S392.824,456,384,456z M432,456c-8.824,0-16-7.176-16-16s7.176-16,16-16s16,7.176,16,16S440.824,456,432,456z"/>
	<rect x="368" y="336" style="fill:#333333;" width="32" height="16"/>
</g>
<g>
</g>
<g>
</g>
<g>
</g>
<g>
</g>
<g>
</g>
<g>
</g>
<g>
</g>
<g>
</g>
<g>
</g>
<g>
</g>
<g>
</g>
<g>
</g>
<g>
</g>
<g>
</g>
<g>
</g>
</svg>
