<?xml version="1.0" encoding="iso-8859-1"?>
<!-- Generator: Adobe Illustrator 19.0.0, SVG Export Plug-In . SVG Version: 6.00 Build 0)  -->
<svg version="1.1" id="Capa_1" xmlns="http://www.w3.org/2000/svg" xmlns:xlink="http://www.w3.org/1999/xlink" x="0px" y="0px"
	 viewBox="0 0 496 496" style="enable-background:new 0 0 496 496;" xml:space="preserve">
<path style="fill:#FFA64D;" d="M176,0C87.776,0,16,71.776,16,160h320C336,71.776,264.224,0,176,0z"/>
<g>
	<path style="fill:#333333;" d="M463.736,200h-2.224c-4.784,0-9.6,1.088-13.928,3.16l-111.6,53.376c0-0.184,0.016-0.36,0.016-0.536
		v-56c8.824,0,16-7.176,16-16v-16c0-8.824-7.176-16-16-16H16c-8.824,0-16,7.176-16,16v16c0,8.824,7.176,16,16,16v56
		c0,28.32,11.232,54.672,31.12,74.136C19.144,344.888,0,374.232,0,408c0,48.52,39.48,88,88,88s88-39.48,88-88
		c0-3.832-0.344-7.656-0.832-11.456l66.32-29.632l21.184,84.728c6.52,26.112,29.888,44.36,56.816,44.36
		c31.504,0,57.216-24.656,58.528-56.136l5.68-136.504l93.192-41.64C488.496,256.544,496,244.984,496,232.264
		C496,214.472,481.52,200,463.736,200z M112.552,406.992c-1.472,0.664-3.112,1.008-4.92,1.008C101.216,408,96,402.784,96,396.368
		c0-4.448,2.592-8.568,6.608-10.496l0,0l285.624-136.608l16.344,27.232L112.552,406.992z M334.752,325.232l-4.696,112.632
		c-0.232,5.688-4.888,10.136-10.568,10.136c-4.856,0-9.08-3.296-10.256-8.008l-23.24-92.968L334.752,325.232z M105.944,423.816
		C101.504,428.824,95.08,432,88,432c-13.232,0-24-10.768-24-24c0-11.392,8-20.92,18.664-23.352c-1.704,3.616-2.664,7.6-2.664,11.72
		C80,410.968,91.424,422.84,105.944,423.816z M32,256v-56h256v-16H16v-16h320v16h-32v16h16v56c0,2.808-0.304,5.632-0.568,8.448
		L149.84,345.552C133.416,329.296,111.256,320,88,320c-8.424,0-16.552,1.256-24.272,3.48C43.576,306.696,32,282.376,32,256z
		 M160,408c0,39.696-32.296,72-72,72s-72-32.304-72-72s32.296-72,72-72c17.064,0,33.4,6.144,46.296,16.984l-35.08,16.776
		C95.576,368.696,91.848,368,88,368c-22.056,0-40,17.944-40,40s17.944,40,40,40c18.216,0,33.896-12.504,38.504-29.72l33.264-14.864
		C159.864,404.944,160,406.472,160,408z M362.032,439.192C361.072,462.08,342.384,480,319.488,480
		c-19.568,0-36.552-13.264-41.304-32.248L256.32,360.28l14.84-6.632l22.544,90.216c2.96,11.856,13.56,20.136,25.784,20.136
		c14.296,0,25.96-11.184,26.552-25.472l5.024-120.584l16.32-7.288L362.032,439.192z M470.368,247.112l-51.08,22.824l-16.56-27.592
		l51.744-24.744c2.192-1.048,4.624-1.6,7.032-1.6h2.224c8.976,0,16.272,7.296,16.272,16.264
		C480,238.672,476.216,244.496,470.368,247.112z"/>
	<rect x="160" y="72" style="fill:#333333;" width="16" height="16"/>
	<rect x="240" y="104" style="fill:#333333;" width="16" height="16"/>
	<rect x="56" y="112" style="fill:#333333;" width="16" height="16"/>
	<rect x="104" y="88" style="fill:#333333;" width="16" height="16"/>
	<rect x="144" y="120" style="fill:#333333;" width="16" height="16"/>
	<rect x="192" y="88" style="fill:#333333;" width="16" height="16"/>
	<rect x="216" y="56" style="fill:#333333;" width="16" height="16"/>
	<rect x="120" y="48" style="fill:#333333;" width="16" height="16"/>
	<rect x="272" y="88" style="fill:#333333;" width="16" height="16"/>
	<rect x="176" y="32" style="fill:#333333;" width="16" height="16"/>
	<rect x="48" y="216" style="fill:#333333;" width="16" height="16"/>
	<rect x="80" y="216" style="fill:#333333;" width="136" height="16"/>
</g>
<g>
</g>
<g>
</g>
<g>
</g>
<g>
</g>
<g>
</g>
<g>
</g>
<g>
</g>
<g>
</g>
<g>
</g>
<g>
</g>
<g>
</g>
<g>
</g>
<g>
</g>
<g>
</g>
<g>
</g>
</svg>
