<?xml version="1.0" encoding="iso-8859-1"?>
<!-- Generator: Adobe Illustrator 19.0.0, SVG Export Plug-In . SVG Version: 6.00 Build 0)  -->
<svg version="1.1" id="Capa_1" xmlns="http://www.w3.org/2000/svg" xmlns:xlink="http://www.w3.org/1999/xlink" x="0px" y="0px"
	 viewBox="0 0 496 496" style="enable-background:new 0 0 496 496;" xml:space="preserve">
<g>
	<polygon style="fill:#FFA64D;" points="352,120 352,200 392,200 392,456 464,456 464,120 	"/>
	<rect x="48" y="384" style="fill:#FFA64D;" width="80" height="96"/>
	<rect x="272" y="384" style="fill:#FFA64D;" width="80" height="96"/>
</g>
<g>
	<rect x="32" y="352" style="fill:#333333;" width="112" height="16"/>
	<rect x="32" y="320" style="fill:#333333;" width="112" height="16"/>
	<rect x="32" y="288" style="fill:#333333;" width="112" height="16"/>
	<rect x="32" y="256" style="fill:#333333;" width="112" height="16"/>
	<rect x="32" y="224" style="fill:#333333;" width="112" height="16"/>
	<path style="fill:#333333;" d="M464,64V32h-16V0h-80v32h-16v32h-32v96h-32V96h-16V68.368l-72-63l-72,63V96h-16v32H96V80H80v48H48
		v32H32v32H0v304h168h8h48h20h140h16h96V64H464z M384,16h48v16h-48V16z M242.704,64h-85.408L200,26.632L242.704,64z M64,144h48v16
		H64V144z M160,480H16V208h80v-16H48v-16h80v16h-16v16h48V480z M176,480V192h-32v-32h-16v-24v-8v-16h96V96h-80V80h112v16h-16v16h32
		v48h-16v32h-32v288H176z M384,480H244h-4V208h80v-16h-48v-16h80v16h-16v16h48V480z M480,480h-80v-16h64v-16h-64v-32h64v-16h-64v-32
		h64v-16h-64v-32h64v-16h-64v-32h64v-16h-64v-32h64v-16h-64v-16h-32v-16h96v-16h-96h-16h-16V80h80V64h-48V48h80v16h-16v16h48V480z"
		/>
	<rect x="256" y="352" style="fill:#333333;" width="112" height="16"/>
	<rect x="256" y="320" style="fill:#333333;" width="112" height="16"/>
	<rect x="256" y="288" style="fill:#333333;" width="112" height="16"/>
	<rect x="256" y="256" style="fill:#333333;" width="112" height="16"/>
	<rect x="256" y="224" style="fill:#333333;" width="112" height="16"/>
	<rect x="352" y="112" style="fill:#333333;" width="112" height="16"/>
</g>
<g>
</g>
<g>
</g>
<g>
</g>
<g>
</g>
<g>
</g>
<g>
</g>
<g>
</g>
<g>
</g>
<g>
</g>
<g>
</g>
<g>
</g>
<g>
</g>
<g>
</g>
<g>
</g>
<g>
</g>
</svg>
