<?xml version="1.0" encoding="iso-8859-1"?>
<!-- Generator: Adobe Illustrator 19.0.0, SVG Export Plug-In . SVG Version: 6.00 Build 0)  -->
<svg version="1.1" id="Capa_1" xmlns="http://www.w3.org/2000/svg" xmlns:xlink="http://www.w3.org/1999/xlink" x="0px" y="0px"
	 viewBox="0 0 496 496" style="enable-background:new 0 0 496 496;" xml:space="preserve">
<path style="fill:#FFA64D;" d="M407.528,379.648c4.376-7.68,8.312-15.976,11.728-24.744h-81.712C317.12,382.2,284.712,400,248,400
	s-69.12-17.8-89.544-45.096H76.744c3.416,8.768,7.352,17.064,11.728,24.744l-21.488,21.496l67.872,67.872l21.488-21.48
	c13.728,7.896,28.368,13.96,43.656,18.08V496h96v-30.384c15.288-4.12,29.928-10.176,43.656-18.08l21.488,21.48l67.872-67.872
	L407.528,379.648z"/>
<g>
	<rect x="312" y="184" style="fill:#333333;" width="16" height="16"/>
	<rect x="344" y="184" style="fill:#333333;" width="16" height="16"/>
	<rect x="376" y="184" style="fill:#333333;" width="16" height="16"/>
	<rect x="104" y="184" style="fill:#333333;" width="16" height="16"/>
	<rect x="136" y="184" style="fill:#333333;" width="16" height="16"/>
	<rect x="168" y="184" style="fill:#333333;" width="16" height="16"/>
	<path style="fill:#333333;" d="M456,232.976v-27.912c0-91.472-64.024-168.336-153.064-185.44c-0.84-4.576-2.952-8.816-6.272-12.264
		C292.104,2.616,285.96,0,279.368,0h-62.744c-6.584,0-12.728,2.616-17.296,7.36c-3.312,3.448-5.432,7.688-6.272,12.264
		C104.024,36.728,40,113.592,40,205.064v27.912c-9.208,2.68-16,11.104-16,21.168l0.04,18.656l3.672,36.776
		C30.592,338.32,54.552,360,83.44,360h68.872c22.656,30.056,58.016,48,95.688,48s73.032-17.944,95.688-48h68.872
		c28.888,0,52.84-21.68,55.72-50.432L472,272v-17.856C472,244.072,465.208,235.656,456,232.976z M193.072,35.936l6.936,180.368
		l15.984-0.608l-7.36-191.392c-0.08-2.184,0.704-4.264,2.232-5.848c1.52-1.584,3.568-2.456,5.768-2.456h62.744
		c2.192,0,4.24,0.872,5.768,2.456c1.52,1.584,2.312,3.664,2.232,5.856l-7.36,191.384L296,216.304l6.936-180.368
		C382.848,52.728,440,122.376,440,205.064V232h-36.448c-5.552-9.52-15.76-16-27.552-16s-22,6.48-27.552,16H147.552
		c-5.552-9.52-15.76-16-27.552-16s-22,6.48-27.552,16H56v-26.936C56,122.376,113.16,52.728,193.072,35.936z M136,264h-32v-16
		c0-8.824,7.176-16,16-16s16,7.176,16,16V264z M152,248h192v16H152V248z M392,264h-32v-16c0-8.824,7.176-16,16-16s16,7.176,16,16
		V264z M46.136,248H88v16H40v-9.856C40,250.76,42.752,248,46.136,248z M248,392c-28.4,0-55.264-11.808-74.736-32h149.464
		C303.264,380.192,276.4,392,248,392z M452.36,307.976C450.312,328.512,433.192,344,412.56,344H83.44
		c-20.632,0-37.744-15.488-39.8-36.024L40.808,280H88h64h192h64h16v-16h-16v-16h41.864c3.384,0,6.136,2.76,6.136,6.144l0.024,9.856
		H440v16h15.152L452.36,307.976z"/>
</g>
<g>
</g>
<g>
</g>
<g>
</g>
<g>
</g>
<g>
</g>
<g>
</g>
<g>
</g>
<g>
</g>
<g>
</g>
<g>
</g>
<g>
</g>
<g>
</g>
<g>
</g>
<g>
</g>
<g>
</g>
</svg>
