<?xml version="1.0" encoding="iso-8859-1"?>
<!-- Generator: Adobe Illustrator 19.0.0, SVG Export Plug-In . SVG Version: 6.00 Build 0)  -->
<svg version="1.1" id="Capa_1" xmlns="http://www.w3.org/2000/svg" xmlns:xlink="http://www.w3.org/1999/xlink" x="0px" y="0px"
	 viewBox="0 0 496 496" style="enable-background:new 0 0 496 496;" xml:space="preserve">
<g>
	<rect x="432" y="296" style="fill:#0fbcba;" width="56" height="48"/>
	<rect x="328" y="392" style="fill:#0fbcba;" width="104" height="48"/>
	<path style="fill:#0fbcba;" d="M288,112h-1.144h0.016c-7.4-51.688-50.088-91.992-102.872-95.72V16c0-4.416-3.584-8-8-8h-16
		c-4.416,0-8,3.584-8,8v0.28C99.216,20.008,56.528,60.312,49.136,112h0.016H48c-4.416,0-8,3.584-8,8v16c0,4.416,3.584,8,8,8h240
		c4.416,0,8-3.584,8-8v-16C296,115.584,292.416,112,288,112z"/>
</g>
<g>
	<path style="fill:#333333;" d="M212,200c11.024,0,20-8.968,20-20s-8.976-20-20-20s-20,8.968-20,20S200.976,200,212,200z M212,176
		c2.208,0,4,1.8,4,4s-1.792,4-4,4s-4-1.8-4-4S209.792,176,212,176z"/>
	<path style="fill:#333333;" d="M144,180c0-11.032-8.976-20-20-20s-20,8.968-20,20s8.976,20,20,20S144,191.032,144,180z M120,180
		c0-2.2,1.792-4,4-4s4,1.8,4,4s-1.792,4-4,4S120,182.2,120,180z"/>
	<path style="fill:#333333;" d="M128,232c0,22.056,17.944,40,40,40s40-17.944,40-40h-16c0,13.232-10.768,24-24,24s-24-10.768-24-24
		H128z"/>
	<path style="fill:#333333;" d="M268.328,288l-40.816-4.808c14.072-11.16,24.904-26.176,30.984-43.44
		C279.368,238.432,296,221.2,296,200v-50.224c4.76-2.776,8-7.88,8-13.776v-16c0-6.808-4.296-12.6-10.304-14.904
		c-9.864-50.784-52.016-89.976-103.4-96.128C187.688,3.68,182.288,0,176,0h-16c-6.288,0-11.688,3.68-14.296,8.968
		c-51.384,6.152-93.536,45.344-103.4,96.128C36.296,107.4,32,113.192,32,120v16c0,5.896,3.24,11,8,13.776V200
		c0,21.2,16.632,38.432,37.512,39.752c6.08,17.264,16.904,32.28,30.976,43.44l-44.92,5.296C27.328,292.76,0,323.504,0,359.992V472
		c0,13.232,10.768,24,24,24h104h8h192h8h160V288H268.328z M480,336h-40v-32h40V336z M336,432v-32h88v32H336z M272,368v112H163.552
		c2.752-4.728,4.448-10.144,4.448-16c0-13.48-8.4-24.976-20.208-29.688l8.6-17.2c2.656,0.616,5.392,1.016,8.232,1.016
		c15.064,0,28.416-9.04,34-23.024l16.736-41.84l12.336-6.168c8.128-4.064,14.248-11.4,16.792-20.12
		c2.536-8.728,1.32-18.192-3.36-25.984l-0.056-0.096l29.488,3.472c28.184,3.32,49.44,27.232,49.44,55.616V400h-32v-32H272z
		 M108.592,309.224l6.416-10.696l13.088-1.544c0.456,18.448,13.432,33.776,30.76,37.864l-8.616,8.272
		c-4.624,2.136-9.824,2.136-14.44-0.168l-20.344-10.168c-4.208-2.112-7.256-5.76-8.576-10.28
		C105.56,317.976,106.168,313.264,108.592,309.224z M220.992,298.536l6.416,10.696c2.424,4.04,3.032,8.752,1.712,13.272
		c-0.96,3.304-2.864,6.128-5.456,8.24c0.184-1.176,0.336-2.344,0.336-3.544c0-7.536-3.504-14.4-9.624-18.816
		c-2.304-1.664-4.856-2.704-7.48-3.424c0.6-2.608,0.968-5.264,1.04-7.968L220.992,298.536z M144,381.504v-1.424
		c0-5.584,2.312-11.008,6.336-14.872l44.736-42.944c0.76-0.736,1.696-1.296,2.736-1.64l0.72-0.24
		c0.752-0.256,1.528-0.376,2.296-0.376c1.48,0,2.936,0.464,4.184,1.36c1.904,1.376,2.992,3.496,2.992,5.832
		c0,0.92-0.168,1.824-0.512,2.672l-23.72,59.288c-3.144,7.872-10.664,12.96-19.144,12.96C153.248,402.128,144,392.872,144,381.504z
		 M189.24,307.064c-1.896,1.008-3.704,2.184-5.248,3.664l-8.216,7.888C173.28,319.472,170.688,320,168,320
		c-11.528,0-21.168-8.168-23.464-19.024C152.056,302.88,159.896,304,168,304c8.088,0,15.912-1.112,23.416-3.008
		C190.968,303.104,190.24,305.144,189.24,307.064z M352,336v16h16v32h-32v-24.008c0-22.464-10.376-42.72-26.792-55.992H424v32H352z
		 M384,384v-32h96v32H384z M280,152v16.208c-4.672-3.536-10.056-6.184-16-7.392V152H280z M262.72,222.928
		c0.768-4.88,1.28-9.84,1.28-14.928v-30.528c9.288,3.312,16,12.112,16,22.528C280,210.888,272.672,220,262.72,222.928z M277.208,104
		H264v16h24v16H48v-16h200v-16h-37.168l19.792-64.312C253.576,53.96,270.768,76.88,277.208,104z M72,152v8.808
		c-5.944,1.216-11.328,3.856-16,7.392V152H72z M192,72V25.24c8.424,1.312,16.52,3.696,24.192,6.936L194.096,104h-52.184
		l-22.096-71.816c7.664-3.248,15.76-5.624,24.184-6.944V72c0,8.824,7.176,16,16,16h16C184.824,88,192,80.824,192,72z M160,16h16v56
		h-16l-0.008-56H160z M105.384,39.688L125.168,104H58.792C65.232,76.888,82.424,53.96,105.384,39.688z M56,200
		c0-10.416,6.712-19.216,16-22.528V208c0,5.088,0.512,10.048,1.28,14.928C63.328,220,56,210.888,56,200z M88,208v-56h160v56
		c0,44.112-35.888,80-80,80S88,252.112,88,208z M65.44,304.376l29.488-3.48l-0.056,0.096c-4.672,7.792-5.896,17.256-3.36,25.984
		c2.536,8.72,8.664,16.056,16.784,20.12l20.336,10.168c1.88,0.936,3.832,1.552,5.8,2.112C130.296,365.44,128,372.68,128,380.088
		v1.424c0,11.616,5.544,21.864,14.008,28.576L131.056,432H64v-64H48v24H16v-32.008C16,331.608,37.256,307.696,65.44,304.376z
		 M128,480H24c-4.408,0-8-3.584-8-8v-64h32v40h88c8.824,0,16,7.176,16,16s-7.176,16-16,16H128z M288,480v-64h32v64H288z M336,448h32
		v32h-32V448z M384,480v-32h80v-16h-24v-32h40v80H384z"/>
</g>
<g>
</g>
<g>
</g>
<g>
</g>
<g>
</g>
<g>
</g>
<g>
</g>
<g>
</g>
<g>
</g>
<g>
</g>
<g>
</g>
<g>
</g>
<g>
</g>
<g>
</g>
<g>
</g>
<g>
</g>
</svg>
