<svg enable-background="new 0 0 499.096 499.096" viewBox="0 0 499.096 499.096" xmlns="http://www.w3.org/2000/svg"><path d="m448 137.548c0-59.168-45.88-107.616-104-111.72v-8.28c0-4.416-3.584-8-8-8h-16c-4.416 0-8 3.584-8 8v8.28c-58.12 4.104-104 52.552-104 111.72h.008-.008c-4.416 0-8 3.584-8 8v16c0 4.416 3.584 8 8 8h240c4.416 0 8-3.584 8-8v-16c0-4.416-3.584-8-8-8z" fill="#0fbcba"/><g fill="#333"><path d="m372 233.548c11.032 0 20-8.968 20-20s-8.968-20-20-20-20 8.968-20 20 8.968 20 20 20zm0-24c2.2 0 4 1.8 4 4s-1.8 4-4 4-4-1.8-4-4 1.8-4 4-4z"/><path d="m304 213.548c0-11.032-8.968-20-20-20s-20 8.968-20 20 8.968 20 20 20 20-8.968 20-20zm-20 4c-2.2 0-4-1.8-4-4s1.8-4 4-4 4 1.8 4 4-1.8 4-4 4z"/><path d="m368 265.548h-16c0 13.232-10.768 24-24 24s-24-10.768-24-24h-16c0 22.056 17.944 40 40 40s40-17.944 40-40z"/><path d="m104 289.548c13.232 0 24-10.768 24-24s-10.768-24-24-24-24 10.768-24 24 10.768 24 24 24zm0-32c4.416 0 8 3.584 8 8s-3.584 8-8 8-8-3.584-8-8 3.584-8 8-8z"/><path d="m205.704 449.548h293.392l-26.376-79.12c-6.576-19.728-23.408-34.112-43.92-37.52l-52.216-8.704c21.784-12.856 38.024-34.032 44.384-59.16 19.696-2.48 35.032-19.144 35.032-39.496v-50.224c4.76-2.776 8-7.88 8-13.776v-16c0-6.008-3.376-11.192-8.288-13.928-2.864-57.56-46.792-105.248-103.712-112.88v-1.192c0-8.824-7.176-16-16-16h-16c-8.824 0-16 7.176-16 16v1.192c-56.92 7.632-100.848 55.32-103.712 112.872-4.912 2.744-8.288 7.928-8.288 13.936v16c0 5.896 3.24 11 8 13.776v50.224c0 20.352 15.336 37.016 35.032 39.496 6.36 25.128 22.6 46.296 44.384 59.16l-52.216 8.704c-18.032 3-33.2 14.488-41.08 30.616l-34.12-107.216v-9.96h-.08c-.392-14.032-10.536-25.64-23.92-28.232v-48.568h-48v48.568c-13.384 2.584-23.52 14.2-23.92 28.232h-.08v9.96l-54.744 172.04c-.832 2.616-1.256 5.352-1.256 8.104v2.352c0 10.92 6.6 20.296 16 24.448v34.296h16v-32.584c9.088-1.832 16.784-8.272 19.96-17.248l13.472-38.168h77.144l13.472 38.168c3.168 8.976 10.864 15.416 19.952 17.248v32.584h16v-34.296c6.104-2.696 11.008-7.6 13.704-13.704zm67.688-81.928 11.224-28.056 4.472-.744c.512 2.152 1.208 4.232 2.056 6.24l18.96 88.488h-2.792l-26.16-26.168 8-24zm97.992-28.064 11.224 28.056-15.768 15.768 8 24-26.152 26.168h-2.792l18.96-88.496c.848-2.008 1.544-4.088 2.056-6.24zm-41.848 93.992h-3.072l-14.464-67.488c4.92 2.168 10.288 3.488 16 3.488s11.08-1.32 15.992-3.488zm20.096-93.784c-3.856 8.12-12.064 13.784-21.632 13.784s-17.776-5.664-21.632-13.784l-1.08-5.04c7.296 1.776 14.872 2.824 22.712 2.824s15.416-1.048 22.712-2.824zm107.92 35.728 19.344 58.056h-38.336l-6.712-33.568-15.688 3.144 6.08 30.424h-50.928l21.84-21.832-8-24 16.232-16.232-11.536-28.84 36.328 6.056c14.656 2.432 26.672 12.696 31.376 26.792zm-17.552-197.944v16.208c-4.672-3.536-10.056-6.184-16-7.392v-8.816zm-16.336 70.632c.152-2.2.336-4.392.336-6.632v-38.528c9.288 3.312 16 12.112 16 22.528 0 10.536-6.872 19.416-16.336 22.632zm15.944-118.632h-15.608v16h24v16h-240v-16h200v-16h-30.216l15.92-78.32c25.808 17.36 43.4 45.88 45.904 78.32zm-207.608 48v8.808c-5.944 1.216-11.328 3.856-16 7.392v-16.2zm88-160h16v80h-16l-.016-80zm0 96h16c8.824 0 16-7.176 16-16v-62.72c9.52 1.48 18.584 4.272 27.048 8.16l-17.592 86.56h-66.92l-17.576-86.56c8.464-3.888 17.52-6.68 27.04-8.16v62.72c0 8.824 7.176 16 16 16zm-57.704-62.32 15.912 78.32h-61.816c2.504-32.44 20.096-60.96 45.904-78.32zm-46.296 174.32c0-10.416 6.712-19.216 16-22.528v38.528c0 2.24.184 4.432.336 6.632-9.464-3.216-16.336-12.096-16.336-22.632zm32 16v-64h160v64c0 44.112-35.888 80-80 80s-80-35.888-80-80zm-49.552 133.944c4.704-14.096 16.728-24.36 31.376-26.808l36.328-6.056-11.536 28.84 16.232 16.232-8 24 21.84 21.848h-50.928l6.088-30.432-15.688-3.144-6.72 33.576h-9.664c-.192-1.76-.496-3.512-1.032-5.192l-12.656-39.776zm-86.448-189.944v32h-16v-32zm-26.376 48h36.752c7.512 0 13.624 6.112 13.624 13.624 0 1-.112 1.992-.328 2.96l-11.72 52.744c-1.4 6.28-6.864 10.672-13.304 10.672h-13.296c-6.44 0-11.904-4.392-13.304-10.672l-11.728-52.752c-.208-.96-.32-1.952-.32-2.952 0-7.512 6.112-13.624 13.624-13.624zm11.728 96h13.296c1.216 0 2.4-.16 3.584-.304l11.4 32.304h-43.264l11.4-32.304c1.184.144 2.368.304 3.584.304zm-60.48 112.832c-1.512 4.288-5.584 7.168-10.128 7.168-5.92 0-10.744-4.824-10.744-10.744v-2.352c0-1.112.168-2.2.504-3.256l47.168-148.232 4.752 21.384c1.536 6.896 5.336 12.736 10.52 16.832zm34.208-48.832 5.648-16h54.56l5.648 16zm120.92 45.256c0 5.92-4.824 10.744-10.744 10.744-4.544 0-8.616-2.88-10.128-7.168l-42.072-119.208c5.176-4.096 8.976-9.936 10.52-16.832l4.752-21.384 47.168 148.24c.336 1.056.504 2.152.504 3.256z"/></g></svg>