<svg height="496pt" viewBox="-40 0 496 496" width="496pt" xmlns="http://www.w3.org/2000/svg"><path d="m288 320h64v112h-64zm0 0" fill="#0fbcba"/><path d="m288 309.886719c0-11.222657-5.984375-21.472657-15.535156-27.375-16.769532-10.367188-29.488282-26.121094-35.863282-44.65625-11.539062 11.207031-27.25 18.144531-44.601562 18.144531-35.34375 0-64-28.65625-64-64s28.65625-64 64-64c24.511719 0 45.777344 13.792969 56.527344 34.023438 4.578125-6.101563 9.976562-11.589844 16.039062-16.328126h-.015625l-12.4375-12.4375 9.527344-19.058593c-.511719-1.128907-.96875-2.289063-1.410156-3.445313l-20.230469-6.753906v-32l20.238281-6.742188c.441407-1.167968.90625-2.320312 1.410157-3.449218l-9.527344-19.054688 5.144531-5.152344-1.394531-.832031c-6.246094-2.570312-12.6875-4.777343-19.207032-6.570312l-6.128906-30.199219h-77.078125l-6.128906 30.191406c-13.328125 3.671875-26.121094 8.976563-38.160156 15.824219l-25.695313-17.03125-54.496094 54.496094 17.03125 25.695312c-6.839843 12.039063-12.152343 24.832031-15.824218 38.160157l-30.183594 6.128906v77.078125l30.191406 6.128906c3.671875 13.328125 8.976563 26.121094 15.824219 38.152344l-17.03125 25.695312 54.496094 54.503907 25.695312-17.03125c12.039063 6.839843 24.832031 12.152343 38.160157 15.824218l6.128906 30.183594h77.078125l6.128906-30.191406c13.328125-3.671875 26.121094-8.976563 38.160156-15.824219l8.761719 5.816406 4.40625.199219zm0 0" fill="#0fbcba"/><path d="m387.191406 145.257812 10.425782-10.425781-9.265626-18.519531 19.648438-6.542969v-43.539062l-19.648438-6.542969 9.265626-18.519531-30.785157-30.785157-18.519531 9.265626-6.542969-19.648438h-43.53125l-6.542969 19.648438-18.519531-9.265626-30.785156 30.785157 9.265625 18.519531-19.65625 6.542969v12.640625c-12.785156-4.535156-26.183594-6.871094-40-6.871094-66.167969 0-120 53.832031-120 120s53.832031 120 120 120c26.503906 0 52.167969-8.878906 73.0625-24.945312 1.089844.738281 2.074219 1.570312 3.195312 2.265624 7.351563 4.535157 11.742188 12.230469 11.742188 20.566407v146.113281c0 22.054688 17.945312 40 40 40s40-17.945312 40-40v-146.113281c0-8.335938 4.390625-16.03125 11.742188-20.574219 27.714843-17.144531 44.257812-46.289062 44.257812-77.96875 0-25.375-10.632812-48.953125-28.808594-66.085938zm-139.191406-67.488281 18.367188-6.128906 1.34375-3.550781c.386718-1.019532.785156-2.027344 1.234374-3.011719l1.550782-3.460937-8.648438-17.296876 14.472656-14.472656 17.296876 8.648438 3.460937-1.550782c.992187-.449218 2-.839843 3.011719-1.234374l3.550781-1.34375 6.128906-18.367188h20.46875l6.128907 18.367188 3.554687 1.34375c1.015625.386718 2.023437.785156 3.007813 1.234374l3.460937 1.550782 17.296875-8.648438 14.472656 14.472656-8.648437 17.296876 1.550781 3.460937c.449219.992187.839844 2 1.234375 3.011719l1.34375 3.550781 18.359375 6.128906v20.46875l-18.367188 6.128907-1.34375 3.554687c-.386718 1.015625-.785156 2.023437-1.234374 3.007813l-1.550782 3.460937 8.648438 17.296875-3.542969 3.542969c-3.511719-2.335938-7.203125-4.476563-11.074219-6.390625l-11.535156-5.695313v17.167969l-5.617188-2.808594-3.460937 1.550782c-.992187.449218-2 .839843-3.011719 1.234374l-3.550781 1.34375-6.128906 18.367188h-20.46875l-6.128907-18.367188-3.554687-1.34375c-1.015625-.386718-2.023437-.785156-3.007813-1.234374l-3.460937-1.550782-5.609375 2.808594v-17.167969l-11.535156 5.679688c-3.871094 1.910156-7.5625 4.054687-11.074219 6.390625l-3.542969-3.542969 8.648438-17.296875-1.550782-3.464844c-.449218-.988281-.839843-2-1.234374-3.007812l-1.34375-3.550782-18.367188-6.121093zm40 80.429688 3.6875-1.839844 6.542969 19.640625h43.53125l6.542969-19.648438 3.695312 1.847657v45.273437l-32 19.199219-32-19.199219zm-60.664062 77.214843c-9.96875 8.128907-22.335938 12.585938-35.335938 12.585938-30.878906 0-56-25.121094-56-56s25.121094-56 56-56c19.152344 0 36.679688 9.785156 46.960938 25.695312-9.59375 14.542969-14.960938 31.640626-14.960938 49.648438 0 8.257812 1.175781 16.328125 3.335938 24.070312zm-35.335938 60.585938c-57.34375 0-104-46.65625-104-104s46.65625-104 104-104c13.929688 0 27.328125 2.832031 40 8.136719v13.632812l19.648438 6.542969-9.265626 18.519531 10.425782 10.425781c-1.167969 1.101563-2.328125 2.214844-3.433594 3.367188-13.488281-17.847656-34.550781-28.625-57.375-28.625-39.695312 0-72 32.304688-72 72s32.304688 72 72 72c14.992188 0 29.296875-4.648438 41.34375-13.136719 4.695312 9.578125 11.054688 18.328125 18.9375 25.898438-17.519531 12.460937-38.601562 19.238281-60.28125 19.238281zm171.328125-20.296875c-12.105469 7.480469-19.328125 20.265625-19.328125 34.183594v42.113281h-32v16h32v48h-32v16h32v24c0 13.230469-10.769531 24-24 24s-24-10.769531-24-24v-56h32v-16h-32v-48h32v-16h-32v-10.113281c0-13.917969-7.222656-26.703125-19.328125-34.183594-22.960937-14.199219-36.671875-38.253906-36.671875-64.359375 0-24.441406 11.992188-46.929688 32-61.265625v62.457031l48 28.800782 48-28.800782v-62.457031c20.007812 14.335937 32 36.832031 32 61.265625 0 26.105469-13.710938 50.160156-36.671875 64.359375zm0 0"/><path d="m320 128c22.054688 0 40-17.945312 40-40s-17.945312-40-40-40-40 17.945312-40 40 17.945312 40 40 40zm0-64c13.230469 0 24 10.769531 24 24s-10.769531 24-24 24-24-10.769531-24-24 10.769531-24 24-24zm0 0"/><path d="m328 456c0 4.417969-3.582031 8-8 8s-8-3.582031-8-8 3.582031-8 8-8 8 3.582031 8 8zm0 0"/><path d="m184 32h16v16h-16zm0 0"/><path d="m73.203125 84.519531 11.316406-11.3125 11.3125 11.3125-11.3125 11.3125zm0 0"/><path d="m32 184h16v16h-16zm0 0"/><path d="m73.222656 299.484375 11.320313-11.308594 11.308593 11.316407-11.316406 11.3125zm0 0"/><path d="m184 336h16v16h-16zm0 0"/></svg>